<?xml version="1.0" standalone="no"?>
<!DOCTYPE svg PUBLIC "-//W3C//DTD SVG 1.1//EN" "http://www.w3.org/Graphics/SVG/1.1/DTD/svg11.dtd" >
<svg xmlns="http://www.w3.org/2000/svg" xmlns:xlink="http://www.w3.org/1999/xlink" version="1.1">
<metadata>
Created by FontForge 20190801 at Fri Jan  2 08:10:40 2004
 By www-data
Revised by Viktar Autushka, Miensk, Bielarus', 2000
</metadata>
<defs>
<font id="4242" horiz-adv-x="1352" >
  <font-face 
    font-family="4242"
    font-weight="400"
    font-stretch="normal"
    units-per-em="2150"
    panose-1="4 11 5 0 0 0 0 0 0 0"
    ascent="1720"
    descent="-430"
    x-height="868"
    cap-height="1491"
    bbox="-158 -516 2806 1937"
    underline-thickness="50"
    underline-position="-125"
    unicode-range="U+0020-2122"
  />
<missing-glyph horiz-adv-x="1075" 
d="M134 0v1900h807v-1900h-807zM269 134h537v1632h-537v-1632z" />
    <glyph glyph-name=".notdef" horiz-adv-x="1075" 
d="M134 0v1900h807v-1900h-807zM269 134h537v1632h-537v-1632z" />
    <glyph glyph-name=".null" horiz-adv-x="0" 
 />
    <glyph glyph-name="nonmarkingreturn" horiz-adv-x="578" 
 />
    <glyph glyph-name="space" unicode=" " horiz-adv-x="578" 
 />
    <glyph glyph-name="exclam" unicode="!" horiz-adv-x="504" 
d="M231 365q46 55 73 120q6 16 44 133l209 644q2 6 2 11q0 25 -31 42q-27 16 -53 16q141 40 287 99q65 30 199 73q-113 -78 -151 -148q-39 -98 -77 -196l-207 -520q-41 -102 -81 -144q-30 -31 -104 -67q-82 -41 -110 -63zM285 252q58 0 95.5 -38.5t37.5 -96.5
q0 -65 -41.5 -105.5t-106.5 -40.5q-120 0 -120 131q0 58 39 104t96 46z" />
    <glyph glyph-name="quotedbl" unicode="&#x22;" horiz-adv-x="793" 
d="M459 918q188 126 188 231q0 25 -35 37q-49 17 -64 30q-34 32 -34 105q0 55 33.5 95t87.5 40q139 0 139 -147q0 -119 -93 -246q-87 -118 -200 -176zM766 918q188 126 188 231q0 25 -35 37q-49 17 -64 30q-34 32 -34 105q0 55 33.5 95t87.5 40q139 0 139 -147
q0 -119 -93 -246q-87 -118 -200 -176z" />
    <glyph glyph-name="numbersign" unicode="#" horiz-adv-x="1311" 
d="M1057 858l-344 4l-90 -305l342 2zM1544 831q-33 25 -166 28q-77 0 -155 -1l-88 -299l325 2q-67 -86 -67 -160q0 -24 10 -41q-33 25 -165 28q-78 0 -155 -1l-108 -369q-49 27 -101 27q-57 0 -102 -31q43 50 87 188q26 94 52 187l-338 2l-110 -373q-49 27 -101 27
q-57 0 -102 -31q43 49 87 191l54 188l-307 4q66 101 66 168q0 21 -6 37q43 -47 116 -47h181l96 309l-311 4q65 101 65 168q0 21 -6 37q43 -47 117 -47h186l121 391q53 -20 104 -20q60 0 103 22q-67 -60 -88 -131l-76 -260l348 2l121 387q53 -20 104 -20q60 0 103 22
q-67 -60 -88 -131l-76 -258l328 2q-68 -87 -68 -155q0 -25 10 -46z" />
    <glyph glyph-name="dollar" unicode="$" horiz-adv-x="1284" 
d="M1157 473q19 53 19 119q0 122 -170 209l-218 112q-118 61 -118 215q0 167 132 261q119 86 290 77l55 179l92 4l-65 -195q35 -5 128 -37q86 -31 103 -31q21 0 37 27l28 -14l-157 -477l-33 4q6 24 6 51q0 80 -55 146q-52 61 -131 87l-92 -262q46 -21 194 -125
q137 -96 137 -293q0 -236 -208 -401q-194 -154 -437 -154l-63 -196l-88 2l63 203q-138 0 -270 122q-135 124 -135 261q0 173 130 275q120 95 298 95q348 0 528 -264zM791 600q-94 0 -158 -33q-82 -42 -82 -127q0 -66 40 -120q42 -58 105 -66l109 346h-14zM911 1090
q0 -46 33 -84l66 211q-99 -25 -99 -127zM1128 434q-86 115 -235 152l-113 -344q15 -2 29 -2q91 0 183.5 56.5t135.5 137.5z" />
    <glyph glyph-name="percent" unicode="%" horiz-adv-x="1729" 
d="M358 805q0 191 119 407q136 246 309 246q118 0 181 -83q55 -75 55 -197q0 -201 -115 -406q-133 -237 -317 -237q-115 0 -177 80q-55 72 -55 190zM1149 240q0 194 120 410q136 247 312 247q110 0 174 -76q60 -72 60 -184q0 -211 -109 -418q-129 -244 -320 -244
q-115 0 -178 76q-59 71 -59 189zM598 0l860 1436h105l-869 -1436h-96zM1448 193q106 0 177 105q63 94 63 206q0 77 -43 123.5t-119 46.5q-105 0 -181 -102q-69 -94 -69 -203q0 -78 47 -127t125 -49zM655 754q100 0 173 94q67 87 67 190q0 195 -162 195q-109 0 -183 -100
q-67 -91 -67 -205q0 -76 48 -125t124 -49z" />
    <glyph glyph-name="ampersand" unicode="&#x26;" horiz-adv-x="1655" 
d="M731 821q-24 2 -61 19q-160 73 -160 227q0 203 179 334q161 117 372 117q109 0 200 -43q115 -54 115 -152q0 -58 -53.5 -108t-112.5 -50q-57 0 -57 70q0 16 6 48t6 48q0 41 -32 67.5t-74 26.5q-114 0 -184 -123q-60 -104 -60 -227q0 -89 64.5 -168.5l64.5 -79.5
q0 -42 -57 -67q-1 -1 -62 -10q-127 -20 -234 -165q-102 -140 -102 -272q0 -108 48 -176q54 -78 157 -78q145 0 271 144q122 139 122 286q0 121 -108 121q-49 0 -94 -33q-49 -36 -49 -83q0 -33 28 -33q20 0 29 4l55 6q60 0 60 -68q0 -67 -47.5 -119.5t-112.5 -52.5
q-113 0 -113 160q0 164 128 294t292 130q95 0 240.5 -98.5t224.5 -98.5q55 0 90 41t35 97q0 45 -41 45q-21 0 -66 -23.5t-65 -23.5q-70 0 -70 80q0 68 57 120t126 52q71 0 112 -63q35 -55 35 -130q0 -144 -101 -272q-108 -138 -247 -138q-92 0 -252 97
q-62 -230 -256.5 -382.5t-431.5 -152.5q-159 0 -255.5 91t-96.5 249q0 220 160 370q157 146 378 146z" />
    <glyph glyph-name="quotesingle" unicode="'" horiz-adv-x="446" 
d="M444 918q189 126 189 231q0 25 -35 37q-49 16 -64 30q-34 31 -34 105q0 55 33.5 95t87.5 40q139 0 139 -147q0 -119 -93 -246q-87 -118 -200 -176z" />
    <glyph glyph-name="parenleft" unicode="(" horiz-adv-x="629" 
d="M967 1630l-6 -49q-215 -275 -336 -662q-115 -369 -115 -735q0 -174 35 -338l-13 -49q-227 226 -227 619q0 350 186 685q181 328 476 529z" />
    <glyph glyph-name="parenright" unicode=")" horiz-adv-x="641" 
d="M129 -203l8 49q451 629 451 1397q0 178 -37 338l16 49q226 -225 226 -618q0 -350 -186 -687q-183 -332 -478 -528z" />
    <glyph glyph-name="asterisk" unicode="*" horiz-adv-x="823" 
d="M690 1104l-160 35q-53 12 -53 75q0 45 32.5 82t76.5 37q50 0 78 -41l86 -127l-15 144q0 57 28 101q33 52 87 52q72 0 72 -67q0 -49 -99 -230l144 127q46 41 92 41q65 0 65 -84q0 -91 -94 -110l-176 -35l139 -41q60 -18 60 -74q0 -46 -35 -86.5t-80 -40.5t-91 75
q-27 53 -54 107l20 -182q5 -45 -34.5 -77.5t-84.5 -32.5q-76 0 -76 69q0 38 44 115q32 54 65 108q-48 -50 -95 -100q-83 -80 -122 -80q-80 0 -80 72q0 99 105 127z" />
    <glyph glyph-name="plus" unicode="+" horiz-adv-x="737" 
d="M451 174q18 143 20 342q-199 -2 -342 -20q74 118 104 225q79 -8 236 -19q-1 87 -14 259q141 12 227 90q-14 -185 -23 -346q162 8 347 22q-78 -88 -91 -227q-72 8 -258 14q2 -52 19 -235q-107 -31 -225 -105z" />
    <glyph glyph-name="comma" unicode="," horiz-adv-x="436" 
d="M66 -287q57 29 119 99q69 79 69 133q0 22 -35 35q-49 17 -65 33q-35 33 -35 104q0 56 36 95.5t91 39.5q60 0 98.5 -41.5t38.5 -101.5q0 -118 -94 -248q-88 -121 -199 -180z" />
    <glyph glyph-name="hyphen" unicode="-" horiz-adv-x="805" 
d="M229 496q74 118 105 225q217 -21 289 -21q6 0 340 27q-76 -88 -91 -227q-131 16 -266 16q-219 0 -377 -20z" />
    <glyph glyph-name="hyphen" unicode="&#x2010;" horiz-adv-x="805" 
d="M229 496q74 118 105 225q217 -21 289 -21q6 0 340 27q-76 -88 -91 -227q-131 16 -266 16q-219 0 -377 -20z" />
    <glyph glyph-name="period" unicode="." horiz-adv-x="432" 
d="M248 258q60 0 100.5 -43t40.5 -104q0 -57 -39 -95.5t-96 -38.5q-60 0 -97.5 40.5t-37.5 101.5q0 53 38.5 96t90.5 43z" />
    <glyph glyph-name="slash" unicode="/" horiz-adv-x="526" 
d="M70 14q41 41 80 133l540 1270q51 -20 103 -20q57 0 104 22q-73 -60 -102 -131l-523 -1270q-45 27 -98 27q-55 0 -104 -31z" />
    <glyph glyph-name="zero" unicode="0" horiz-adv-x="946" 
d="M229 326q0 249 155 529q177 319 402 319q140 0 222 -100q77 -93 77 -236q0 -277 -140 -540q-165 -312 -415 -312q-144 0 -226 100q-75 93 -75 240zM614 264q134 0 226 132q84 119 84 259q0 102 -52 164q-55 66 -155 66q-144 0 -238 -128q-86 -116 -86 -265
q0 -97 62 -162.5t159 -65.5z" />
    <glyph glyph-name="one" unicode="1" horiz-adv-x="944" 
d="M139 -20l2 40q158 37 274 210q71 106 154 323q55 143 113 321h-8q-74 0 -135 -52t-78 -126l-29 2l180 451q77 29 195 41q99 8 199 16q-82 -195 -196 -516q-142 -403 -142 -495q0 -109 92 -195q-125 6 -260 6q-191 0 -361 -26z" />
    <glyph glyph-name="two" unicode="2" horiz-adv-x="948" 
d="M43 -4q83 228 514 461q138 75 185 115q94 81 94 186q0 62 -43 102.5t-105 40.5q-69 0 -117.5 -45t-48.5 -113q0 -59 37 -83q10 -6 90 -31q-47 -27 -104 -27q-91 0 -150 77q-55 72 -55 165q0 99 78 198q101 129 293 129q167 0 269 -81q112 -88 112 -250q0 -177 -225 -320
q-118 -74 -380 -174q-58 -22 -176 -104q84 12 152 12q42 0 126 -2t126 -2q86 0 136 34q47 32 87 111q7 14 10 25l29 -2l-139 -377q-20 -53 -129 -53q-80 0 -240 23.5t-240 23.5q-73 0 -172 -53z" />
    <glyph glyph-name="three" unicode="3" horiz-adv-x="946" 
d="M645 410l-18 -7q-37 37 -97 37q-46 0 -81 -31.5t-35 -76.5q0 -48 50 -86q47 -35 97 -35q101 0 180.5 72t79.5 172q0 155 -225 155l6 39q201 23 201 133q0 50 -41 84.5t-92 34.5q-86 0 -156 -45q-75 -48 -96 -127l-23 -2l135 358q82 66 238 66q262 0 262 -227
q0 -163 -258 -289q124 -47 162 -89q49 -54 49 -175q0 -177 -149 -288q-135 -101 -318 -101q-136 0 -243 84q-115 91 -115 223q0 111 60 184q64 78 173 78q162 0 254 -141z" />
    <glyph glyph-name="four" unicode="4" horiz-adv-x="944" 
d="M1022 618l-92 -305q-86 -32 -182 -32q0 -26 -3.5 -79t-3.5 -79q0 -72 56 -133q-252 14 -463 8l2 31q33 -2 37 -2q72 0 153.5 91.5t81.5 164.5q-65 43 -211 43q-84 0 -132 -21q-57 -33 -113 -65q98 143 159 323q100 295 152 384q124 212 319 212q121 0 207 -47l-123 -311
q-111 76 -161 76q-185 0 -297 -312q9 -2 16 -2q23 0 69.5 8.5t69.5 8.5q22 0 65 -5.5t64 -5.5q26 0 45 23t19 49q0 12 -4 23l198 81q-30 -63 -80 -196q43 8 81 30q56 33 71 39z" />
    <glyph glyph-name="five" unicode="5" horiz-adv-x="946" 
d="M580 432q-43 27 -97 27q-42 0 -67 -33q-23 -29 -23 -72q0 -52 39 -86.5t92 -34.5q110 0 190 93q77 90 77 202q0 80 -49.5 128.5t-129.5 48.5q-49 0 -118 -46q-62 -40 -97 -86l-12 13q57 161 176 479q26 65 94 78q51 10 105 10q26 0 79 -2t79 -2q69 0 120 25l-100 -252
q-19 -48 -150 -48q-28 0 -82.5 4.5t-82.5 4.5q-70 0 -138 -170q95 67 191 67q134 0 215 -106q74 -96 74 -234q0 -197 -133 -330t-330 -133q-140 0 -234 72q-104 79 -104 215q0 107 65 181q69 77 174 77q115 0 177 -90z" />
    <glyph glyph-name="six" unicode="6" horiz-adv-x="946" 
d="M1096 1110l-129 -342q-105 119 -234 119q-144 0 -256 -117t-112 -262q0 -98 59 -170q62 -78 158 -78q84 0 140 62t56 147q0 78 -56.5 125t-135.5 47q-117 0 -142 -139h-16q5 104 82 171q75 64 180 64q142 0 225 -89q80 -87 80 -230q0 -178 -102 -302q-110 -132 -283 -132
q-179 0 -281 127q-93 117 -93 301q0 273 184 502q196 243 463 243q102 0 213 -47z" />
    <glyph glyph-name="seven" unicode="7" horiz-adv-x="946" 
d="M549 514q-14 2 -29 2q-14 0 -92 -12l64 80q35 34 88 34q30 0 51 -10q102 77 264 277q-76 -35 -150 -35q-37 0 -111.5 8t-111.5 8q-62 0 -125.5 -59.5t-77.5 -122.5h-32l121 342q5 17 16 51q28 80 272 80q135 0 301 -24h-4q19 0 58 15t61 15q-41 -184 -262 -448
q-52 -62 -76 -103h17q57 0 114 17l-114 -127l-99 -4q-73 -82 -131 -197q-67 -132 -67 -223q0 -53 36 -94t88 -41q94 0 114 98l16 162l28 4q33 -193 33 -213q0 -133 -83 -236q-89 -110 -218 -110q-123 0 -197 92q-69 85 -69 211q0 119 57 248q56 126 143 211z" />
    <glyph glyph-name="eight" unicode="8" horiz-adv-x="946" 
d="M659 723q-22 -6 -45 -6q-68 0 -121 55t-53 123q0 113 88 190q84 74 199 74q119 0 201 -55q96 -63 96 -176q0 -116 -101 -186q-58 -40 -220 -96q-154 -53 -211 -99q-86 -69 -86 -141q0 -166 182 -166q95 0 166 52q77 58 77 150q0 139 -112 164q31 12 65 12q93 0 148 -74
q49 -67 49 -163q0 -189 -120 -296q-115 -103 -306 -103q-150 0 -264 89q-123 96 -123 242q0 134 98 220q74 64 223 114l240 74q100 35 100 119q0 47 -34 75.5t-82 28.5q-52 0 -89.5 -36t-37.5 -87q0 -96 73 -98z" />
    <glyph glyph-name="nine" unicode="9" horiz-adv-x="944" 
d="M225 35l115 330q123 -109 248 -109q141 0 250.5 118t109.5 259q0 99 -59 172q-63 78 -160 78q-83 0 -137.5 -62.5t-54.5 -146.5q0 -77 57 -125.5t135 -48.5q117 0 141 141q9 -23 9 -41q0 -95 -70 -145q-62 -45 -160 -45q-134 0 -233 91t-99 224q0 184 99 304
q106 130 286 130q178 0 281 -130q94 -119 94 -302q0 -280 -183 -504q-195 -237 -468 -237q-125 0 -201 49z" />
    <glyph glyph-name="colon" unicode=":" horiz-adv-x="473" 
d="M268 258q63 0 102.5 -42.5t39.5 -106.5q0 -58 -39 -95t-97 -37q-59 0 -96 41t-37 101q0 54 37 96.5t90 42.5zM475 872q61 0 102 -42t41 -103q0 -57 -39 -95t-96 -38q-133 0 -133 135q0 57 33 98q36 45 92 45z" />
    <glyph glyph-name="semicolon" unicode=";" horiz-adv-x="467" 
d="M477 870q60 0 96.5 -36.5t36.5 -96.5q0 -66 -41.5 -104.5t-107.5 -38.5q-119 0 -119 133q0 56 40 99.5t95 43.5zM59 -287q109 56 168 150q37 59 37 82q0 22 -32 33q-45 15 -59 27q-32 28 -32 93t39 109.5t103 44.5q118 0 118 -137q0 -117 -107 -253q-98 -124 -212 -181z
" />
    <glyph glyph-name="less" unicode="&#x3c;" 
d="M1276 324q-45 -68 -45 -121q0 -29 12 -66l-1018 506q54 72 54 123q0 16 -21 57l1196 510q-49 -69 -49 -116q0 -27 16 -72l-995 -414z" />
    <glyph glyph-name="equal" unicode="=" horiz-adv-x="766" 
d="M98 311q76 119 105 226q217 -21 289 -21q149 0 483 27q-76 -88 -90 -228q-131 17 -410 17q-219 0 -377 -21zM221 680q76 119 105 225q217 -20 288 -20q150 0 484 26q-76 -88 -90 -227q-132 16 -410 16q-219 0 -377 -20z" />
    <glyph glyph-name="greater" unicode="&#x3e;" 
d="M170 324l993 407l-848 414q39 49 39 131q0 26 -6 61v-4l1028 -516q-53 -78 -53 -131q0 -20 8 -43l-1194 -506q45 76 45 127q0 22 -12 60z" />
    <glyph glyph-name="question" unicode="?" horiz-adv-x="782" 
d="M442 256q58 0 94.5 -36.5t36.5 -94.5q0 -64 -41.5 -106t-105.5 -42q-123 0 -123 127q0 58 40.5 105t98.5 47zM717 1073q-84 -55 -174 -55q-115 0 -115 115q0 143 106 243q104 97 248 97q123 0 205 -54q96 -63 96 -180q0 -113 -62 -217.5t-161 -163.5q-110 -42 -219 -85
q-147 -61 -147 -148q0 -66 73 -66q97 0 97 72q0 45 -41 45q-13 0 -25 -6q53 53 141 53q117 0 117 -107q0 -117 -94 -194q-88 -72 -207 -72q-99 0 -175 49q-87 56 -87 150q0 89 57 177q54 84 135 130q118 46 236 91q149 69 149 192q0 44 -27 74t-71 30q-53 0 -96 -26
q-51 -31 -51 -80q0 -41 92 -64z" />
    <glyph glyph-name="at" unicode="@" horiz-adv-x="1731" 
d="M1198 266q210 0 364 196q144 183 144 400q0 231 -153 365q-145 127 -379 127q-336 0 -596 -245q-263 -249 -263 -583q0 -272 182 -429q173 -148 449 -148q324 0 574 231l-35 123q-250 -209 -524 -209q-213 0 -346 115q-140 121 -140 330q0 268 203.5 466.5t472.5 198.5
q176 0 288 -86q122 -95 122 -266q0 -206 -136 -344q-95 -96 -172 -96q-30 0 -30 45q0 50 55 209l76 206l-228 -112q13 -27 13 -53q0 -85 -47 -164q-55 -90 -134 -90q-43 0 -70.5 31.5t-27.5 74.5q0 77 51 153q56 85 129 85q42 0 62 -19l252 129q-49 76 -183 76
q-178 0 -329 -187q-144 -178 -144 -360q0 -66 44.5 -117t109.5 -51q56 0 119 68q18 18 90 115q-2 -15 -2 -31q0 -154 139 -154z" />
    <glyph glyph-name="A" unicode="A" horiz-adv-x="1565" 
d="M752 788l221 578q174 109 377 109q16 0 64 -16q151 -53 151 -208q0 -70 -31 -190l-133 -514q-4 -15 -4 -62q0 -37 26.5 -63.5t63.5 -26.5q64 0 125 90q17 25 78 146l32 -4l-211 -621l-43 -2q11 45 31 107q-102 -107 -156 -107q-69 0 -114 45t-45 113q0 25 8 59l184 780
q2 8 2 17q0 59 -65 96q-56 33 -119 33q-145 0 -253 -119q-52 -58 -157 -242zM754 428q-117 131 -228 131q-77 0 -130 -38q-60 -44 -60 -118q0 -186 184 -186q179 0 277 132q70 95 116 296q27 119 27 139q0 32 -47 31q6 32 41 92q73 127 223 127q28 0 41 -2q-50 -30 -78 -67
q-35 -46 -155 -496q-56 -208 -137 -313q-104 -134 -292 -169q-36 -7 -83 -7q-360 0 -433 235q-20 65 -20 107q0 158 121 260q114 96 274 96q114 0 221 -69q115 -75 138 -181zM995 422q42 138 79 196q65 103 169 103l-45 -172q-147 0 -203 -127z" />
    <glyph glyph-name="B" unicode="B" horiz-adv-x="1559" 
d="M594 776l215 582q202 110 444 110q172 0 293 -91q133 -101 133 -267q0 -146 -107 -248q-69 -66 -235 -149q104 -21 169 -113q61 -86 61 -194q0 -161 -106 -285q-111 -131 -269 -131q-55 0 -219 51l-17 -72l-38 -2l161 559l39 -6q-10 -47 -10 -82q0 -133 135 -133
q64 0 105 69q34 58 34 128q0 68 -45 119t-112 51q-56 0 -105 -37l41 121q27 -23 58 -23q38 0 96 39q100 68 100 189q0 84 -76 135q-66 45 -155 45q-176 0 -324 -111q-113 -84 -233 -256zM821 451q-92 137 -260 137q-85 0 -147 -49q-68 -54 -68 -136q0 -83 66 -127
q56 -38 143 -38q163 0 264 139q61 83 131 285q51 148 51 219q0 47 -34 47q-11 0 -19 -6q105 133 221 133q52 0 91 -17q-88 -65 -121 -134.5t-62 -184.5q-76 -296 -120 -390q-92 -194 -277 -288q-129 -66 -279 -66q-157 0 -275 97q-126 103 -126 256q0 170 134 280
q125 103 300 103q283 0 387 -260z" />
    <glyph glyph-name="C" unicode="C" horiz-adv-x="1343" 
d="M684 659l-94 -262q45 -47 143 -75q84 -25 162 -25q238 0 409 178q93 96 126 176l38 6q-149 -336 -247 -456q-179 -219 -451 -219q-67 0 -151 16q-99 19 -138 49l-28 -78l-39 21l28 82q-98 66 -150 195q-46 114 -46 245q0 207 124 439q116 217 285 360q194 164 426 164
q188 0 302 -103q120 -107 120 -293q0 -197 -167 -360.5t-365 -163.5q-148 0 -287 104zM1034 905q89 0 149 64.5t60 154.5q0 85 -69.5 144t-155.5 59q-219 0 -381 -218q-148 -200 -148 -427q0 -188 72 -256q109 289 254 741q10 -262 219 -262z" />
    <glyph glyph-name="D" unicode="D" horiz-adv-x="1376" 
d="M309 66l-33 -99l-40 -2l223 588h37q-29 -53 -29 -104q0 -44 43 -78.5t88 -34.5q43 0 84 44q33 38 49 85q148 452 148 459q0 56 -66 55q98 111 215 111q72 0 111 -50q-71 -2 -103 -102l-188 -588q-2 -6 -2 -11q0 -44 63 -44q178 0 303 129.5t125 308.5q0 197 -146 325
q-140 122 -341 122q-119 0 -216 -60q-112 -69 -112 -180q0 -78 37 -127q41 -55 117 -55q11 0 55 12q-35 -143 -186 -143q-150 0 -245 92t-95 242q0 235 167 378q159 136 398 136q295 0 504 -184q219 -192 219 -484q0 -327 -229 -579q-235 -259 -559 -259q-98 0 -207 22
q-134 28 -189 75z" />
    <glyph glyph-name="E" unicode="E" horiz-adv-x="1368" 
d="M651 926q-8 49 -8 96q0 193 114 318q117 130 308 130q110 0 193 -40q71 -34 159 -117l-186 -539l-39 6q27 51 27 115q0 96 -51 164q-57 74 -150 74q-68 0 -123.5 -55t-60.5 -124q92 0 174 -40q102 -49 102 -130q0 -70 -55 -108q-48 -33 -121 -33q-76 0 -147 50
q-68 47 -103 118q-71 -16 -123.5 -86.5t-52.5 -144.5q0 -123 110 -199q97 -68 226 -68q230 0 434 183q164 147 197 264l34 -12l-286 -775l-41 4l22 101q-64 -48 -180 -80q-109 -31 -197 -31q-413 0 -540 273q-45 97 -45 186q0 76 30 158q48 132 148 215q81 66 231 127z
M952 739q68 0 68 56q0 51 -72 67q-54 8 -108 15v-13q0 -52 30.5 -88.5t81.5 -36.5z" />
    <glyph glyph-name="H" unicode="H" horiz-adv-x="1737" 
d="M803 520l-19 -12q-36 43 -101.5 73.5t-121.5 30.5q-83 0 -147 -60t-64 -142q0 -78 60 -131.5t139 -53.5q110 0 209 80.5t129 188.5l160 573q-115 0 -220 23h2q-72 -3 -102 -43q-32 -43 -96 -205l-31 -2l188 561q116 43 199 43q39 0 114.5 -12.5t112.5 -12.5q50 0 152 49
q-65 -75 -152 -268q-82 -184 -104 -291q-7 -35 -31 -125l-100 -378q-115 -433 -512 -433q-190 0 -320 103q-141 112 -141 297q0 157 121 269t279 112q253 0 397 -234zM1786 1466q119 0 184.5 -65.5t65.5 -183.5q0 -115 -86 -189q-82 -70 -199 -70q-98 0 -141 58q14 -6 28 -6
q31 0 54.5 20.5t23.5 50.5q0 60 -78 60q-97 0 -174 -267l-50 -158q-30 -104 -30 -165q0 -72 31 -120q37 -56 105 -56q85 0 169 110q74 97 89 191l32 -6l-239 -697l-37 7l55 180q-134 -174 -250 -174q-72 0 -121 45t-49 116q0 50 27 140l281 936q73 243 309 243zM1075 578
l74 219q47 23 94 45q55 28 78 67l-61 -157q-21 -53 -42.5 -72.5t-80.5 -40.5z" />
    <glyph glyph-name="I" unicode="I" horiz-adv-x="1268" 
d="M1053 457q21 29 47 106l151 453q-87 4 -243 59q-11 4 -21 4q-76 0 -174 -198l-20 8l188 508q154 67 215 67q44 0 125 -40t125 -40q78 0 137 58l14 -33q-115 -97 -176 -297l-194 -633q-31 -101 -66 -186q13 -62 13 -133q0 -21 -3 -195h-36q0 182 -7 273
q-215 -263 -516 -263q-215 0 -371 93q-186 112 -186 313q0 176 118 273q109 91 288 91q177 0 326 -81q114 -62 266 -207zM631 578q-80 0 -136 -39q-63 -45 -63 -121q0 -87 85 -135q70 -39 165 -39q213 0 322 151q-59 77 -167.5 130t-205.5 53z" />
    <glyph glyph-name="K" unicode="K" horiz-adv-x="1778" 
d="M844 483l-10 -18q-66 80 -112 107q-58 34 -153 34q-86 0 -148 -45q-69 -51 -69 -133q0 -90 87 -145q75 -47 171 -47q136 0 255 121q101 102 153 247l172 475q-44 -18 -109 -18q-32 0 -88 15.5t-75 15.5q-85 0 -132 -79q-10 -15 -61 -151h-35l180 547q94 16 170 16
q45 0 133.5 -18t133.5 -18q47 0 94 26q53 28 63 70h33l-67 -117q-87 -152 -218 -618l33 30q54 142 185 385q163 303 423 303q122 0 200.5 -80.5t78.5 -201.5q0 -114 -76 -190t-190 -76q-195 0 -234 176q11 -2 25 -2q80 0 80 59q0 61 -76 61q-119 0 -236 -154
q-41 -54 -155 -257q143 121 221 121q41 0 67.5 -30.5t26.5 -72.5q0 -58 -37 -188.5t-37 -171.5q0 -38 27.5 -68.5t65.5 -30.5q99 0 168 86q24 30 98 170l33 -6l-248 -632l-31 8l41 114q-111 -110 -235 -110q-85 0 -138 45q-57 48 -57 131q0 37 56 208q36 110 73 220
q33 104 33 125q0 59 -54 59q-60 0 -133 -127q-24 -43 -86 -184q-57 -130 -114 -213q-90 -131 -217 -207q-138 -82 -287 -82q-308 0 -436 185q-70 101 -70 208q0 82 39 166q105 226 399 226q131 0 241 -76q104 -71 165 -193z" />
    <glyph glyph-name="M" unicode="M" horiz-adv-x="2097" 
d="M860 819l211 547q174 90 326 90q144 0 208 -57q68 -61 68 -203q0 -51 -12 -100q98 196 154 258q103 116 264 116q38 0 112.5 -5t112.5 -5q24 0 66 18t63 19l2 -2v-4q-9 -17 -22 -47v-2q-130 -303 -207 -303q-27 0 -81 3t-81 3q-230 0 -307 -64q-103 -86 -178 -364
l-166 -617q-10 -36 112 -106l-444 2q84 20 121 47q46 35 69 109l181 587q36 117 36 215q0 158 -161 158q-145 0 -248 -85q-79 -65 -162 -210zM2107 1092q-111 -74 -137 -168l-82 -291q-18 -64 -18 -115q0 -37 40 -68q37 -28 75 -28q73 0 137 97q28 42 80 161l26 -2
l-235 -690l-37 -2l26 98q-104 -80 -163 -80q-172 0 -172 148q0 46 24 131l180 635q26 94 94 131q44 24 162 43zM864 420q-26 86 -101.5 139t-166.5 53q-104 0 -181 -55q-85 -62 -85 -162q0 -97 74 -158q69 -57 169 -57q125 0 232 62q114 66 158 178l86 217q53 134 53 194
q0 57 -47 66q23 51 86 97q67 48 121 48q22 0 47 -6q-35 -28 -56 -87q-14 -50 -28 -101q-48 -166 -96 -333q-73 -223 -154 -320q-188 -224 -469 -224q-208 0 -344 95q-156 109 -156 309q0 167 130 279q125 108 294 108q158 0 283 -92q135 -98 151 -250z" />
    <glyph glyph-name="O" unicode="O" 
d="M1405 1075q-19 30 -39 70q-91 182 -319 182q-244 0 -410 -181q-162 -176 -162 -423q0 -156 72 -244l90 221q0 23 -3 67.5t-3 66.5q0 86 59 188q121 209 332 209q205 0 330 -134q121 -130 121 -337q0 -316 -202 -543q-209 -237 -521 -237q-140 0 -295 88l-41 -103l-41 12
l41 115q-114 107 -151.5 194.5t-37.5 245.5q0 154 78 342q108 260 302 424q217 183 478 183q221 0 332 -125q70 -79 70 -146q0 -71 -80 -135zM872 319q188 0 320.5 132.5t132.5 320.5q0 137 -77 233q-83 105 -216 105q-139 0 -227 -141q69 43 156 43q96 0 157.5 -68
t61.5 -164q0 -115 -77 -200q-80 -88 -194 -88q-68 0 -144 48q-72 46 -110 107l-73 -201q32 -55 129 -93q86 -34 161 -34zM901 766q30 0 52 24t22 54q0 78 -98 78q-68 0 -68 -60q0 -36 28.5 -66t63.5 -30z" />
    <glyph glyph-name="P" unicode="P" horiz-adv-x="1458" 
d="M1028 553q39 76 49 156q-82 43 -119 112q45 -9 136 -24q20 82 20 118q0 53 -55 60q74 110 182 110q38 0 82 -18q-55 -53 -80 -125q-8 -23 -35 -145q195 4 195 182q0 156 -197 156q-275 0 -555 -295l-39 4l215 510q189 116 406 116q176 0 289 -91q123 -99 123 -271
q0 -230 -205 -356q-73 -45 -252 -66q-10 -65 -74 -217q90 -150 90 -279q0 -110 -28 -219l-43 -2q30 99 30 207q0 146 -73 232q-184 -441 -611 -441q-187 0 -322 105q-147 114 -147 295q0 198 131 316q126 114 325 114q159 0 304 -70q107 -52 258 -174zM621 655
q-91 0 -125 -14q-146 -60 -146 -203q0 -192 250 -192q126 0 236 70q114 71 161 186q-67 67 -173.5 110t-202.5 43z" />
    <glyph glyph-name="U" unicode="U" horiz-adv-x="1262" 
d="M418 393q41 -47 147 -47q285 0 348 221l213 750q18 64 84 103q60 36 131 36q19 0 41 -4q-124 -48 -184 -305l-141 -600q-4 -17 -4 -62q0 -37 26.5 -63.5t63.5 -26.5q64 0 125 90q17 25 78 146l32 -4l-211 -621l-43 -2q7 37 31 107q-63 -117 -184 -117h-459
q-110 0 -173 77q-58 71 -58 183q0 103 36 201l191 520q0 35 -53 45q-21 2 -62 8q-26 4 -88 30q-58 25 -74 25q-49 0 -95 -79q-6 -11 -56 -123l-19 8l187 508q122 69 217 69q37 0 116.5 -41t127.5 -41q26 0 70.5 16t62.5 34l18 -25q-71 -58 -131 -213z" />
    <glyph glyph-name="X" unicode="X" horiz-adv-x="1565" 
d="M520 -27q-194 0 -336 114q-153 123 -153 312q0 153 105 265t257 112q185 0 285 -63q106 -65 174 -232l-21 -6q-94 160 -243 160q-87 0 -145 -48q-62 -52 -62 -138q0 -88 75 -148q69 -55 160 -55q157 0 282.5 110.5t152.5 266.5q-16 10 -45 10q-60 0 -103 -68v15
q0 88 46 151q50 70 134 76q7 45 7 63q0 119 -81.5 195t-201.5 76q-265 0 -344 -248h-29l162 502q188 67 262 67q361 0 361 -399q149 407 469 407q94 0 156 -51q67 -55 67 -147q0 -103 -66 -166.5t-170 -63.5q-51 0 -86 15q19 28 19 61q0 72 -80 72q-102 0 -202 -143
q-85 -122 -107 -240q14 -4 30 -4q49 0 86 24q19 12 68 60l-76 -156q-28 -58 -55.5 -78t-93.5 -32q-15 -84 -15 -101q0 -76 47 -121t123 -45q83 0 156 67q70 64 90 148h27l-179 -598l-32 2l14 107q-51 -58 -90 -77q-43 -21 -117 -21q-71 0 -125.5 51t-54.5 121q0 56 16 143
q22 114 25 141q-13 -33 -72 -149q-83 -163 -184 -235q-112 -81 -287 -81z" />
    <glyph glyph-name="Y" unicode="Y" 
d="M1231 639q-80 -107 -164 -107q-91 0 -156 67q-61 65 -77 191q-8 104 -16 209q-15 110 -75 150q-2 11 -34 20q-26 7 -41 7q-77 0 -128 -35q-57 -41 -57 -115q0 -160 168 -160q64 0 123 62q-26 -78 -124 -131q-90 -49 -179 -49q-135 0 -232 104q-94 101 -94 238
q0 102 78 200q129 162 385 162q167 0 276 -103t109 -268q0 -30 -6 -90t-6 -90q0 -242 149 -242q99 0 178 209q70 194 139 389q95 209 232 209q52 0 115 -32l-135 -385q-45 61 -78 61q-30 0 -53 -31t-199 -516q-91 -252 -162 -350q-111 -153 -315 -215q-59 -18 -170 -18
q-102 0 -207 44q-47 19 -188 97l-58 -156l-39 2l218 623q58 -120 183.5 -201.5t256.5 -81.5q138 0 245 101q97 91 138 231z" />
    <glyph glyph-name="bracketleft" unicode="[" horiz-adv-x="530" 
d="M209 -117q0 -19 153 -22q10 0 164 2l-20 -49h-533q656 1644 658 1794h518l-21 -49q-69 2 -124 2q-173 0 -173 -27z" />
    <glyph glyph-name="backslash" unicode="\" horiz-adv-x="1047" 
d="M1085 14q-39 39 -79 133l-541 1270q-51 -20 -103 -20q-57 0 -104 22q73 -60 102 -131l523 -1270q45 27 98 27q55 0 104 -31z" />
    <glyph glyph-name="bracketright" unicode="]" horiz-adv-x="825" 
d="M887 1538q0 20 -154 23q-9 0 -164 -2l21 49h532q-655 -1657 -657 -1794h-518l20 49q70 -2 125 -2q172 0 172 26z" />
    <glyph glyph-name="asciicircum" unicode="^" horiz-adv-x="1165" 
d="M1022 625h-178l-260 544l-258 -544h-179l357 731h160z" />
    <glyph glyph-name="underscore" unicode="_" horiz-adv-x="1065" 
d="M1065 -395h-1065v186h1065v-186z" />
    <glyph glyph-name="grave" unicode="`" horiz-adv-x="608" 
d="M430 1225q0 -25 -41 -25q-85 0 -217 83q-141 89 -141 167q0 33 37 31l65 -4q11 0 33 2t33 2q35 0 61 -39l41 -62q7 -11 71 -83q58 -65 58 -72z" />
    <glyph glyph-name="a" unicode="a" horiz-adv-x="932" 
d="M995 774l-315 -160q-23 23 -76 23q-92 0 -162 -105q-63 -95 -63 -192q0 -55 34.5 -94t88.5 -39q99 0 167 114q58 99 58 203q0 33 -16 66l284 141q-43 -120 -86 -239q-73 -207 -73 -244q0 -39 43 -39q34 0 104 117l21 -4q-52 -108 -103 -216q-74 -129 -182 -129
q-105 0 -105 125q0 57 15 103q-95 -125 -111 -143q-81 -87 -149 -87q-83 0 -139 65q-54 62 -54 146q0 230 180 451q189 233 412 233q166 0 227 -96z" />
    <glyph glyph-name="b" unicode="b" horiz-adv-x="924" 
d="M453 332q0 -105 133 -105q82 0 151.5 68.5t69.5 150.5q0 111 -109 111q-106 0 -143 -102l-18 4l114 307q70 12 109 12q94 0 153.5 -55t59.5 -148v-45q0 -185 -137 -360q-146 -186 -324 -186q-268 0 -268 219q0 181 297 923q45 114 141 177q86 57 209 57q244 0 244 -234
q0 -125 -98.5 -220t-223.5 -95q-55 0 -98 40t-45 95q57 -82 135 -82q44 0 77 66q27 55 27 104q0 46 -29 79.5t-75 33.5q-34 0 -63 -26.5t-46 -71.5q-64 -170 -227 -637q-16 -46 -16 -80z" />
    <glyph glyph-name="c" unicode="c" horiz-adv-x="852" 
d="M635 465q23 6 41 32t18 50q0 45 -34 73q-31 25 -78 25q-89 0 -153 -65t-64 -154q0 -85 79 -145q72 -56 160 -56q90 0 167 56q74 54 110 139h26q-74 -443 -405 -443q-132 0 -210 104q-71 94 -71 230q0 203 115 371q128 188 321 188q100 0 172 -60q76 -64 76 -161
q0 -95 -57 -150t-152 -55q-30 0 -61 21z" />
    <glyph glyph-name="e" unicode="e" horiz-adv-x="852" 
d="M416 475q55 -82 135 -82q58 0 106 46t48 104q0 56 -43 92q-40 33 -97 33q-85 0 -148 -90q-57 -81 -57 -170q0 -96 74 -162q71 -64 168 -64q105 0 209.5 80.5t138.5 181.5l27 -6q-19 -61 -105 -209q-143 -247 -352 -247q-136 0 -224 102q-83 97 -83 235q0 151 82 285
q79 129 213 207q98 57 178 57q244 0 244 -233q0 -124 -99 -220t-223 -96q-69 0 -126 43q-62 47 -66 113z" />
    <glyph glyph-name="g" unicode="g" horiz-adv-x="924" 
d="M776 870q170 0 213 -98l-270 -164q-33 37 -82 37q-102 0 -186 -132q-76 -118 -76 -228q0 -52 34.5 -85.5t86.5 -33.5q96 0 182 133q78 122 78 225q0 29 -17 58l269 157l-267 -860q-62 -200 -168 -293q-118 -102 -319 -102q-108 0 -196 51q-103 60 -103 160q0 85 79 144
q73 55 161 55q85 0 143 -38q44 -30 102 -108l-18 -18q-47 61 -137 61q-105 0 -105 -104q0 -90 105 -90q100 0 160 69q44 49 83 160q33 86 65 173q45 123 48 173q-109 -131 -122 -143q-77 -72 -165 -72q-176 0 -176 221q0 245 162 447q197 245 436 245z" />
    <glyph glyph-name="i" unicode="i" horiz-adv-x="565" 
d="M506 1098q0 52 37 94.5t88 42.5q50 0 81 -32t31 -83q0 -133 -135 -133q-102 0 -102 111zM391 784q0 59 -6 72q55 -4 111 -4q106 0 184 12q-12 -28 -45 -78q-17 -25 -47 -110l-117 -328q-22 -62 -22 -100q0 -51 36 -51q25 0 68 54q26 38 53 75l15 -4q-41 -111 -110 -214
q-94 -139 -173 -139q-55 0 -92 39t-37 94q0 67 29 158l137 430q16 50 16 94z" />
    <glyph glyph-name="m" unicode="m" horiz-adv-x="1337" 
d="M115 -18q78 88 140 249q45 134 91 269q25 72 25 94q0 45 -47 45q-41 0 -99 -113l-22 6q134 330 282 330q121 0 121 -139q0 -76 -31 -117q117 148 130 161q90 93 174 93q112 0 112 -119q0 -77 -20 -127q178 250 289 250q126 0 126 -108q0 -73 -57 -240q-40 -110 -80 -219
q-12 -35 -12 -41q0 -45 45 -45q43 0 82 119l22 -6q-102 -340 -270 -340q-47 0 -84 30t-37 76q0 34 65 223q42 118 83 236q4 12 4 31q0 63 -53 63q-74 0 -133 -106q-25 -44 -70 -172l-56 -144q-36 -101 -36 -153q0 -35 14 -78q-65 8 -129 8q-78 0 -156 -21q51 68 119 251
q42 122 84 245q31 86 31 113q0 57 -51 57q-95 0 -203 -254q-98 -228 -98 -342q0 -33 12 -65q-86 12 -172 12q-37 0 -135 -12z" />
    <glyph glyph-name="n" unicode="n" horiz-adv-x="973" 
d="M121 -16q56 78 163 335q103 246 103 287q0 53 -47 53q-41 0 -98 -127l-17 9q43 111 107 202q90 127 172 127q121 0 121 -110q0 -29 -17 -139q5 10 23 36q88 124 105 141q69 72 153 72q133 0 133 -133q0 -61 -77 -246t-77 -235q0 -41 35 -41q51 0 88 115l25 -8l-90 -195
q-66 -143 -181 -143q-114 0 -114 110q0 65 83 272t83 248q0 26 -21 45t-47 19q-88 0 -212 -278q-114 -255 -114 -359q0 -29 11 -59q-74 20 -138 20q-40 0 -155 -18z" />
    <glyph glyph-name="o" unicode="o" horiz-adv-x="901" 
d="M657 854q-241 -192 -241 -424q0 -88 43 -151q49 -72 133 -72q106 0 168 94q55 82 55 193q0 147 -141 147q-52 0 -103 -40.5t-67 -90.5l-37 -6q57 203 244 358q26 8 30 8q104 0 169 -114q55 -97 55 -209q0 -207 -114 -379q-129 -195 -325 -195q-136 0 -225 101
q-86 97 -86 235q0 289 231 455q114 82 211 90z" />
    <glyph glyph-name="p" unicode="p" horiz-adv-x="918" 
d="M551 -20q-107 0 -176 81l100 267q37 -70 49 -86q35 -45 82 -45q104 0 171 100q59 88 59 197q0 170 -138 170q-172 0 -332 -425q-123 -327 -153 -591q-4 -34 -10 -142q-146 19 -185 19q-67 0 -133 -17q175 260 344 742q129 367 129 459q0 102 -100 129q117 0 344 47
q-33 -97 -96 -289l113 177q78 97 174 97q118 0 173 -116q42 -88 42 -222q0 -189 -132 -364q-142 -188 -325 -188z" />
    <glyph glyph-name="u" unicode="u" horiz-adv-x="1024" 
d="M383 -23q-51 0 -87 33.5t-36 83.5q0 69 111 389q30 86 30 109q0 45 -39 45q-36 0 -92 -117h-26q9 40 35 96q53 116 88 161q66 85 153 85q121 0 121 -125q0 -76 -69.5 -249.5t-69.5 -229.5q0 -63 55 -63q134 0 231 380q48 189 48 216q0 40 -19 79q70 -20 146 -20
q110 0 153 27q-60 -106 -112 -267l-82 -278q-23 -75 -23 -94q0 -39 29 -39q45 0 96 123l33 -3q-58 -128 -65 -143q-48 -99 -77 -131q-52 -57 -129 -57q-114 0 -114 141q0 78 14 121q-108 -166 -192 -239q-41 -34 -111 -34z" />
    <glyph glyph-name="x" unicode="x" horiz-adv-x="975" 
d="M358 272q-23 0 -44 -20.5t-21 -42.5q0 -47 47 -47q52 0 113 96q46 71 71 145h-8q-84 0 -129 -57q36 99 40 106q33 62 87 62q42 0 55 -4q17 43 17 78q0 82 -78 82q-66 0 -113 -44q-15 -15 -78 -98l-32 2q69 110 138 219q98 125 208 125q55 0 92 -34t37 -88q0 -27 -8 -64
q140 197 249 197q60 0 103 -41t43 -101q0 -75 -70 -126q-64 -46 -141 -46q-47 0 -86 25q65 29 65 66q0 36 -47 36q-77 0 -153 -188q20 -8 67 -8t97 22q-41 -80 -103 -129h-100q-21 -39 -21 -86q0 -94 93 -94q79 0 144.5 49t80.5 125h31q-54 -147 -137 -257
q-113 -150 -230 -150q-154 0 -156 229q-18 -45 -63 -108q-52 -72 -91 -96q-47 -30 -128 -30q-58 0 -94 47q-33 43 -33 103q0 84 50 136t134 52q61 0 102 -43z" />
    <glyph glyph-name="y" unicode="y" horiz-adv-x="911" 
d="M381 -281q-33 31 -82 31q-76 0 -76 -67q0 -80 101 -80q61 0 116 73q59 79 207 576q-80 -129 -124 -179q-90 -102 -179 -102q-50 0 -87.5 36.5t-37.5 86.5q0 85 68.5 261t68.5 235q0 39 -39 39q-26 0 -75 -117h-29q127 367 268 367q113 0 113 -119q0 -75 -105 -406
q-18 -57 -18 -73q0 -56 51 -56q90 0 185 233q84 206 84 314q0 55 -37 109q88 -29 141 -29q98 0 205 35q-53 -41 -92 -133q-15 -35 -52 -156q-123 -398 -229 -719q-127 -383 -446 -383q-108 0 -183 45q-90 53 -90 154q0 81 57 134.5t138 53.5q65 0 119 -35q63 -39 63 -100
q0 -14 -4 -29z" />
    <glyph glyph-name="z" unicode="z" horiz-adv-x="754" 
d="M344 291l21 76q200 23 200 133q0 50 -41 84t-92 34q-85 0 -156 -45q-75 -49 -96 -127l-22 -2l135 359q82 65 237 65q263 0 263 -227q0 -88 -83 -182q-79 -89 -167 -115q105 -40 131 -57q52 -35 83 -112q25 -63 25 -118q0 -236 -185 -407q-180 -166 -417 -166
q-112 0 -200 49q-107 59 -107 162q0 85 79 144q73 55 161 55q85 0 143 -38q44 -30 102 -108l-18 -18q-47 61 -137 61q-105 0 -105 -104q0 -90 105 -90q27 0 94 44q107 69 172 177q68 114 68 235q0 118 -40 166.5t-153 71.5z" />
    <glyph glyph-name="braceleft" unicode="{" horiz-adv-x="737" 
d="M180 -186h533l20 49q-162 6 -317 24q93 254 286 758q11 28 11 25q0 18 -121 92q49 18 98 35q77 30 86 47q1 2 8 20l256 670q0 29 297 25l21 49h-518q-1 -84 -106 -374q-90 -250 -152 -378q-26 -53 -271 -94q203 -33 203 -80q0 -38 -334 -868z" />
    <glyph glyph-name="bar" unicode="|" horiz-adv-x="596" 
d="M338 14q23 39 24 133l13 1270q59 -20 112 -20q58 0 95 22q-50 -59 -50 -131l7 -1270q-58 27 -109 27q-57 0 -92 -31z" />
    <glyph glyph-name="braceright" unicode="}" horiz-adv-x="885" 
d="M1047 1608h-533l-20 -49q159 -7 317 -25q-100 -261 -297 -782q2 -20 121 -93l-110 -36q-69 -28 -83 -66l-256 -670q0 -28 -297 -24l-20 -49h518q0 87 105 374q88 241 153 377q25 53 270 94q-202 33 -202 80q0 36 334 869z" />
    <glyph glyph-name="asciitilde" unicode="~" horiz-adv-x="725" 
d="M834 422q-60 0 -176.5 27.5t-176.5 27.5q9 -12 19 -33q-12 -7 -16 -27q-3 -16 -21 -16q-28 0 -66.5 37.5t-38.5 67.5q0 131 66 131q2 0 16 -2l373 -53l4 4q-31 28 -31 45q0 8 13 14q0 29 26 29q39 0 75 -51q34 -47 34 -88q0 -113 -100 -113z" />
    <glyph glyph-name="nonbreakingspace" unicode="&#xa0;" horiz-adv-x="578" 
 />
    <glyph glyph-name="currency" unicode="&#xa4;" horiz-adv-x="1270" 
d="M1382 287l-102 -105l-109 109q-131 -107 -301 -107q-178 0 -309 107l-108 -109l-105 105l109 108q-99 133 -99 295q0 187 101 303l-111 111l105 106l110 -112q125 104 309 104q170 0 295 -100l109 108l104 -106l-110 -107q106 -123 106 -303q0 -176 -102 -299zM1210 694
q0 143 -97.5 242.5t-240.5 99.5q-149 0 -248.5 -98.5t-99.5 -247.5q0 -144 101 -242t245 -98t242 100t98 244z" />
    <glyph glyph-name="brokenbar" unicode="&#xa6;" horiz-adv-x="532" 
d="M737 942h-153l227 567h154zM344 -39h-154l242 604h154z" />
    <glyph glyph-name="section" unicode="&#xa7;" horiz-adv-x="885" 
d="M1141 1094l-8 8q18 35 37 70q26 50 26 67q0 35 -80 35q-72 0 -126 -35q-62 -41 -62 -109q0 -51 75.5 -181t75.5 -230q0 -167 -149 -377q-43 -60 -218 -151q-115 -56 -231 -111q27 -101 27 -155q0 -70 -16 -109q-44 -104 -187.5 -202.5t-255.5 -98.5q-74 0 -138 49
q-69 52 -69 123q0 23 102 84t134 61q12 0 12 -8q0 -13 -8 -38.5t-8 -39.5q0 -41 20 -76q23 -41 60 -41q83 0 128 69q37 58 37 145q0 42 -12 87l-78 289q0 164 65 267q51 81 200 198q61 48 227 121q55 24 51 37q-43 152 -43 184q0 48 16 86q34 80 182 170t238 90
q209 0 209 -80q0 -39 -97 -109q-68 -45 -136 -89zM848 571q0 183 -107 183q-119 0 -198 -130q-68 -112 -68 -239q0 -186 92 -186q69 0 148 73q71 64 102 136t31 163z" />
    <glyph glyph-name="copyright" unicode="&#xa9;" horiz-adv-x="1501" 
d="M963 1425q290 0 488 -198t198 -488q0 -289 -198.5 -488.5t-487.5 -199.5t-488 199t-199 489q0 291 198 488.5t489 197.5zM963 131q256 0 432 176t176 432t-176 431.5t-432 175.5q-255 0 -432 -176t-177 -431q0 -258 175.5 -433t433.5 -175zM858 690l-47 -131
q47 -49 154 -49q83 0 157.5 49.5t108.5 126.5l20 4q-74 -166 -125 -228q-91 -110 -225 -110q-110 0 -143 33l-15 -39l-20 10l14 41q-98 66 -98 219q0 165 125 319q131 163 293 163q87 0 147 -48q64 -51 64 -137q0 -109 -79.5 -191.5t-187.5 -82.5q-73 0 -143 51zM1032 813
q46 0 75.5 32.5t29.5 78.5q0 43 -33.5 71.5t-77.5 28.5q-110 0 -190 -108q-74 -100 -74 -214q0 -94 35 -129q55 146 127 371q4 -131 108 -131z" />
    <glyph glyph-name="guillemotleft" unicode="&#xab;" horiz-adv-x="1139" 
d="M1253 913l-82 -180l-286 -166l141 -166l-82 -182l-209 256l82 187zM608 401l-84 -182l-207 256l82 187l437 253l-84 -182l-285 -166z" />
    <glyph glyph-name="logicalnot" unicode="&#xac;" horiz-adv-x="1520" 
d="M1632 0h-119v496h-1296v118h1415v-614z" />
    <glyph glyph-name="minus" unicode="&#xad;" horiz-adv-x="805" 
d="M229 496q74 118 105 225q217 -21 289 -21q6 0 340 27q-76 -88 -91 -227q-131 16 -266 16q-219 0 -377 -20z" />
    <glyph glyph-name="minus" unicode="&#x2212;" horiz-adv-x="805" 
d="M229 496q74 118 105 225q217 -21 289 -21q6 0 340 27q-76 -88 -91 -227q-131 16 -266 16q-219 0 -377 -20z" />
    <glyph glyph-name="registered" unicode="&#xae;" horiz-adv-x="1501" 
d="M961 43q-290 0 -488.5 198t-198.5 488q0 291 198 488.5t489 197.5t488.5 -197.5t197.5 -488.5q0 -290 -198 -488t-488 -198zM958 1335q-257 0 -431.5 -175.5t-174.5 -432.5t176 -431.5t433 -174.5q256 0 432 176t176 432q0 255 -177.5 430.5t-433.5 175.5zM774 760
l96 268q107 64 242 64q92 0 152 -39q71 -46 71 -133q0 -85 -80 -140q-69 -48 -159 -53q19 -15 20 -63q-2 94 -2 -68q0 -57 41 -57q46 0 75 44q21 41 42 83l12 -2l-100 -304l-21 2v35q-24 -41 -71 -41q-28 0 -49 22t-21 50q0 29 30.5 117.5t30.5 128.5q0 35 -30 47l6 22
q45 2 84 31q43 32 43 74q0 96 -111 96q-135 0 -223 -102q-19 -27 -59 -80zM887 590l-10 -10q-41 88 -136 88q-47 0 -81 -26q-37 -28 -37 -73q0 -48 44 -75q38 -23 89 -23q132 0 180 158l32 94q19 58 19 96q0 35 -31 39q82 51 127 51q5 0 35 -6q-58 -12 -98 -158
q-55 -203 -88 -262q-79 -137 -234 -137q-94 0 -162 49q-75 55 -75 146q0 82 58 140t140 58q75 0 138.5 -40t89.5 -109z" />
    <glyph glyph-name="degree" unicode="&#xb0;" horiz-adv-x="852" 
d="M1116 1139q0 -134 -93.5 -227t-227.5 -93q-132 0 -227 94t-95 226q0 139 90.5 229t229.5 90q136 0 229.5 -91.5t93.5 -227.5zM1028 1139q0 105 -74 170q-70 63 -176 63q-95 0 -155 -68.5t-60 -164.5q0 -98 67 -166t165 -68q97 0 165 68.5t68 165.5z" />
    <glyph glyph-name="plusminus" unicode="&#xb1;" horiz-adv-x="1169" 
d="M1436 752h-506l-193 -504h-119l193 504h-504l43 116h504l193 506h118l-192 -506h506zM1149 0h-1129l46 119h1128z" />
    <glyph glyph-name="mu1" unicode="&#xb5;" horiz-adv-x="2150" 
 />
    <glyph glyph-name="mu1" unicode="&#x3bc;" horiz-adv-x="2150" 
 />
    <glyph glyph-name="paragraph" unicode="&#xb6;" horiz-adv-x="1100" 
d="M1141 -352h-154v1698h-237v-1698h-154v1057q-190 0 -310 98q-128 105 -128 291q0 185 134 286q120 90 312 90h537v-1822z" />
    <glyph glyph-name="periodcentered" unicode="&#xb7;" horiz-adv-x="641" 
d="M559 608q0 -62 -64 -138q-67 -79 -128 -79q-60 0 -60 49q0 63 71.5 138t133.5 75q47 0 47 -45z" />
    <glyph glyph-name="periodcentered" unicode="&#x2219;" horiz-adv-x="641" 
d="M559 608q0 -62 -64 -138q-67 -79 -128 -79q-60 0 -60 49q0 63 71.5 138t133.5 75q47 0 47 -45z" />
    <glyph glyph-name="guillemotright" unicode="&#xbb;" horiz-adv-x="1139" 
d="M1049 473l-431 -254l76 182l285 166l-143 166l75 182l217 -253zM629 473l-430 -254l75 182l285 166l-143 166l76 182l217 -253z" />
    <glyph glyph-name="afii10023" unicode="&#x401;" horiz-adv-x="1368" 
d="M651 926q-8 49 -8 96q0 193 114 318q117 130 308 130q110 0 193 -40q71 -34 159 -117l-186 -539l-39 6q27 51 27 115q0 96 -51 164q-57 74 -150 74q-68 0 -123.5 -55t-60.5 -124q92 0 174 -40q102 -49 102 -130q0 -70 -55 -108q-48 -33 -121 -33q-76 0 -147 50
q-68 47 -103 118q-71 -16 -123.5 -86.5t-52.5 -144.5q0 -123 110 -199q97 -68 226 -68q230 0 434 183q164 147 197 264l34 -12l-286 -775l-41 4l22 101q-64 -48 -180 -80q-109 -31 -197 -31q-413 0 -540 273q-45 97 -45 186q0 76 30 158q48 132 148 215q81 66 231 127z
M952 739q-112 0 -112 138q54 -7 108 -15q72 -16 72 -67q0 -56 -68 -56zM1372 1743q0 -103 -121 -103q-127 0 -127 103q0 98 127 98q121 0 121 -98zM1030 1743q0 -103 -127 -103q-121 0 -121 103q0 98 121 98q127 0 127 -98z" />
    <glyph glyph-name="afii10053" unicode="&#x404;" horiz-adv-x="1532" 
d="M578 551q0 64 30 139q104 261 363 314l-133 -396h-39q35 103 35 125v4q-4 8 -19 8q-56 0 -136 -72q-68 -61 -101 -122zM272 547q0 369 301 651q295 277 666 277q291 0 453 -162l-154 -492l-27 8q21 92 21 117q0 9 -14 51q-154 187 -431 187q-241 0 -438 -165
q-207 -174 -207 -411q0 -151 116 -254q113 -100 265 -100q180 0 305 67q158 84 158 250q0 115 -112 115q-11 0 -60 -12q76 143 227 143q113 0 185 -55q78 -61 78 -172q0 -104 -64 -225q-58 -108 -143 -189q-218 -207 -523 -207q-244 0 -421 166q-181 170 -181 412z" />
    <glyph glyph-name="afii10055" unicode="&#x406;" horiz-adv-x="1323" 
d="M1053 457q21 29 47 106l151 453q-87 4 -243 59q-11 4 -21 4q-76 0 -174 -198l-20 8l188 508q154 67 215 67q44 0 125 -40t125 -40q78 0 137 58l14 -33q-115 -97 -176 -297l-194 -633q-31 -101 -66 -186q13 -62 13 -133q0 -21 -3 -195h-36q0 182 -7 273
q-215 -263 -516 -263q-215 0 -371 93q-186 112 -186 313q0 176 118 273q109 91 288 91q177 0 326 -81q114 -62 266 -207zM631 578q-80 0 -136 -39q-63 -45 -63 -121q0 -87 85 -135q70 -39 165 -39q213 0 322 151q-59 77 -167.5 130t-205.5 53zM1526 1743q0 -103 -121 -103
q-127 0 -127 103q0 98 127 98q121 0 121 -98z" />
    <glyph glyph-name="afii10056" unicode="&#x407;" horiz-adv-x="1323" 
d="M1053 457q21 29 47 106l151 453q-87 4 -243 59q-11 4 -21 4q-76 0 -174 -198l-20 8l188 508q154 67 215 67q44 0 125 -40t125 -40q78 0 137 58l14 -33q-115 -97 -176 -297l-194 -633q-31 -101 -66 -186q13 -62 13 -133q0 -21 -3 -195h-36q0 182 -7 273
q-215 -263 -516 -263q-215 0 -371 93q-186 112 -186 313q0 176 118 273q109 91 288 91q177 0 326 -81q114 -62 266 -207zM631 578q-80 0 -136 -39q-63 -45 -63 -121q0 -87 85 -135q70 -39 165 -39q213 0 322 151q-59 77 -167.5 130t-205.5 53zM1626 1743q0 -103 -121 -103
q-127 0 -127 103q0 98 127 98q121 0 121 -98zM1284 1743q0 -103 -127 -103q-121 0 -121 103q0 98 121 98q127 0 127 -98z" />
    <glyph glyph-name="afii10058" unicode="&#x409;" horiz-adv-x="1274" 
d="M1100 473q16 51 16 117q0 123 -117 184l-268 139q-119 62 -119 215q0 150 120 250q114 95 267 95q123 0 340 -89q15 10 45 29l29 -14l-160 -477l-30 4q6 24 6 51q0 92 -77 170t-169 78q-58 0 -94.5 -37.5t-36.5 -95.5q0 -60 54 -107q10 -9 104 -70q187 -121 233 -204
q41 -74 41 -189q0 -116 -65 -231q22 -92 22 -168q0 -53 -12 -148l-35 -2q12 50 12 131q0 76 -20 138q-239 -265 -555 -265q-236 0 -381 156q-107 115 -107 234q0 173 132 277q122 95 300 95q338 0 525 -266zM723 602q-87 0 -153 -36q-81 -44 -81 -124q0 -98 80 -153
q70 -49 172 -49q99 0 190 54t140 140q-51 70 -154.5 119t-193.5 49zM1294 1919q0 -14 -38 -50l-50 -46l-143 -154q-22 -24 -64 -24t-75 32q-19 22 -58 66q-51 57 -137 139q-27 26 -27 37q0 18 27 18q49 0 143 -48q88 -45 127 -85q188 133 269 133q26 0 26 -18z" />
    <glyph glyph-name="afii10062" unicode="&#x40e;" 
d="M1231 639q-80 -107 -164 -107q-91 0 -156 67q-61 65 -77 191q-8 104 -16 209q-15 110 -75 150q-2 11 -34 20q-26 7 -41 7q-77 0 -128 -35q-57 -41 -57 -115q0 -160 168 -160q64 0 123 62q-26 -78 -124 -131q-90 -49 -179 -49q-135 0 -232 104q-94 101 -94 238
q0 102 78 200q129 162 385 162q167 0 276 -103t109 -268q0 -30 -6 -90t-6 -90q0 -242 149 -242q99 0 178 209q70 194 139 389q95 209 232 209q52 0 115 -32l-135 -385q-45 61 -78 61q-30 0 -53 -31t-199 -516q-91 -252 -162 -350q-111 -153 -315 -215q-59 -18 -170 -18
q-102 0 -207 44q-47 19 -188 97l-58 -156l-39 2l218 623q58 -120 183.5 -201.5t256.5 -81.5q138 0 245 101q97 91 138 231zM1180 1540q45 0 90 12q65 17 65 50q0 25 -51 70t-51 83q0 35 38 56q32 18 70 18q67 0 126 -51t59 -117q0 -37 -29 -78q-47 -67 -142 -89
q-58 -13 -175 -13q-119 0 -177 13q-97 22 -145 89q-29 40 -29 78q0 65 61 118q58 50 124 50q39 0 70 -18q38 -21 38 -56q0 -38 -51 -83t-51 -70q0 -33 67 -50q47 -12 93 -12z" />
    <glyph glyph-name="afii10145" unicode="&#x40f;" horiz-adv-x="1475" 
d="M1335 1128l-69 -331q194 4 194 182q0 125 -125 149zM1085 553q39 76 50 156q-82 43 -119 112q45 -9 135 -24q8 38 70 336q-262 -22 -512 -293l-39 4l215 510q189 116 403 116q31 158 31 168q0 53 -55 60q75 110 184 110q39 0 80 -18q-61 -58 -88 -154q-17 -88 -35 -176
q133 -23 215 -120.5t82 -231.5q0 -230 -205 -356q-73 -45 -252 -66q-10 -65 -74 -217q91 -152 91 -279q0 -107 -29 -219l-43 -2q31 99 31 207q0 146 -74 232q-184 -441 -610 -441q-188 0 -322 104q-147 114 -147 296q0 197 130 316q126 114 325 114q158 0 303 -70
q112 -54 259 -174zM678 655q-91 0 -125 -14q-145 -59 -145 -203q0 -192 249 -192q128 0 238 70t160 186q-69 68 -174.5 110.5t-202.5 42.5z" />
    <glyph glyph-name="afii10017" unicode="&#x410;" horiz-adv-x="1565" 
d="M752 788l221 578q174 109 377 109q16 0 64 -16q151 -53 151 -208q0 -70 -31 -190l-133 -514q-4 -15 -4 -62q0 -37 26.5 -63.5t63.5 -26.5q64 0 125 90q17 25 78 146l32 -4l-211 -621l-43 -2q11 45 31 107q-102 -107 -156 -107q-69 0 -114 45t-45 113q0 25 8 59l184 780
q2 8 2 17q0 59 -65 96q-56 33 -119 33q-145 0 -253 -119q-52 -58 -157 -242zM754 428q-117 131 -228 131q-77 0 -130 -38q-60 -44 -60 -118q0 -186 184 -186q179 0 277 132q70 95 116 296q27 119 27 139q0 32 -47 31q6 32 41 92q73 127 223 127q28 0 41 -2q-50 -30 -78 -67
q-35 -46 -155 -496q-56 -208 -137 -313q-104 -134 -292 -169q-36 -7 -83 -7q-360 0 -433 235q-20 65 -20 107q0 158 121 260q114 96 274 96q114 0 221 -69q115 -75 138 -181zM995 422q42 138 79 196q65 103 169 103l-45 -172q-147 0 -203 -127z" />
    <glyph glyph-name="afii10018" unicode="&#x411;" horiz-adv-x="1606" 
d="M1788 1491h29q-57 -134 -114 -267q-84 -166 -198 -171q-128 -6 -129 -6q-111 0 -327.5 38.5t-327.5 38.5q-285 0 -369 -278l-30 2l190 549q156 84 338 84q50 0 232 -32q352 -60 526 -60q94 0 114 12q16 10 66 90zM918 721q203 -90 225 -285q-24 78 -110.5 145.5
t-166.5 67.5q-104 0 -181 -55q-85 -62 -85 -162q0 -108 94 -172q82 -55 195 -55q185 0 310 90q142 102 142 280q0 85 -69.5 144t-155.5 59q-90 0 -198 -57zM688 819l-115 -20l23 59q-3 22 -7 44q-5 26 -32 26q-10 0 -18 -6q104 133 221 133q51 0 90 -17q-91 -71 -162 -219z
M285 391q0 168 130 280q124 107 294 107q43 0 61 -4q180 152 410 152q187 0 302 -103q120 -108 120 -293q0 -140 -103 -282q-211 -291 -635 -291q-270 0 -405 80q-174 102 -174 354z" />
    <glyph glyph-name="afii10019" unicode="&#x412;" horiz-adv-x="1559" 
d="M594 776l215 582q202 110 444 110q172 0 293 -91q133 -101 133 -267q0 -146 -107 -248q-69 -66 -235 -149q104 -21 169 -113q61 -86 61 -194q0 -161 -106 -285q-111 -131 -269 -131q-55 0 -219 51l-17 -72l-38 -2l161 559l39 -6q-10 -47 -10 -82q0 -133 135 -133
q64 0 105 69q34 58 34 128q0 68 -45 119t-112 51q-56 0 -105 -37l41 121q27 -23 58 -23q38 0 96 39q100 68 100 189q0 84 -76 135q-66 45 -155 45q-176 0 -324 -111q-113 -84 -233 -256zM821 451q-92 137 -260 137q-85 0 -147 -49q-68 -54 -68 -136q0 -83 66 -127
q56 -38 143 -38q163 0 264 139q61 83 131 285q51 148 51 219q0 47 -34 47q-11 0 -19 -6q105 133 221 133q52 0 91 -17q-88 -65 -121 -134.5t-62 -184.5q-76 -296 -120 -390q-92 -194 -277 -288q-129 -66 -279 -66q-157 0 -275 97q-126 103 -126 256q0 170 134 280
q125 103 300 103q283 0 387 -260z" />
    <glyph glyph-name="afii10020" unicode="&#x413;" horiz-adv-x="1325" 
d="M756 848l190 549q154 84 338 84q71 0 224 -38q145 -37 225 -32l14 1q12 9 39 22q-50 -113 -99 -226q-75 -131 -186 -131q-58 0 -172.5 23.5t-173.5 23.5q-287 0 -369 -278zM1036 502q25 68 55 186q35 135 35 184q0 44 -53 86q137 115 238 115q28 0 59 -6
q-79 -49 -110 -193l-58 -270q-31 -145 -59 -223q51 -117 51 -236q0 -105 -18 -180h-31q16 132 16 164q0 119 -51 193q-29 -54 -80 -113q-200 -232 -471 -232q-193 0 -339 99q-165 113 -165 297q0 179 136 282q122 93 307 93q136 0 291 -74q143 -68 247 -172zM647 600
q-95 0 -165 -46q-81 -53 -81 -144q0 -183 244 -183q111 0 216 63q113 67 147 167q-137 143 -361 143z" />
    <glyph glyph-name="afii10021" unicode="&#x414;" horiz-adv-x="1376" 
d="M309 66l-33 -99l-40 -2l223 588h37q-29 -53 -29 -104q0 -44 43 -78.5t88 -34.5q43 0 84 44q33 38 49 85q148 452 148 459q0 56 -66 55q98 111 215 111q72 0 111 -50q-71 -2 -103 -102l-188 -588q-2 -6 -2 -11q0 -44 63 -44q178 0 303 129.5t125 308.5q0 197 -146 325
q-140 122 -341 122q-119 0 -216 -60q-112 -69 -112 -180q0 -78 37 -127q41 -55 117 -55q11 0 55 12q-35 -143 -186 -143q-150 0 -245 92t-95 242q0 235 167 378q159 136 398 136q295 0 504 -184q219 -192 219 -484q0 -327 -229 -579q-235 -259 -559 -259q-98 0 -207 22
q-134 28 -189 75z" />
    <glyph glyph-name="afii10022" unicode="&#x415;" horiz-adv-x="1368" 
d="M651 926q-8 49 -8 96q0 193 114 318q117 130 308 130q110 0 193 -40q71 -34 159 -117l-186 -539l-39 6q27 51 27 115q0 96 -51 164q-57 74 -150 74q-68 0 -123.5 -55t-60.5 -124q92 0 174 -40q102 -49 102 -130q0 -70 -55 -108q-48 -33 -121 -33q-76 0 -147 50
q-68 47 -103 118q-71 -16 -123.5 -86.5t-52.5 -144.5q0 -123 110 -199q97 -68 226 -68q230 0 434 183q164 147 197 264l34 -12l-286 -775l-41 4l22 101q-64 -48 -180 -80q-109 -31 -197 -31q-413 0 -540 273q-45 97 -45 186q0 76 30 158q48 132 148 215q81 66 231 127z
M952 739q68 0 68 56q0 51 -72 67q-54 8 -108 15v-13q0 -52 30.5 -88.5t81.5 -36.5z" />
    <glyph glyph-name="afii10024" unicode="&#x416;" horiz-adv-x="2376" 
d="M590 614q-95 0 -165 -59q-73 -63 -73 -156q0 -90 84 -144q73 -46 168 -46q225 0 422 190q-69 102 -191 160q-116 55 -245 55zM2583 1470q94 0 156 -51q67 -55 67 -147q0 -103 -66 -166.5t-170 -63.5q-51 0 -86 15q19 28 19 61q0 72 -80 72q-146 0 -264 -268
q-101 -229 -101 -402q0 -76 47 -121t123 -45q83 0 156 67q70 64 90 148h27l-179 -598l-32 2l14 107q-51 -58 -90 -77q-43 -21 -117 -21q-109 0 -152 84q-9 30 -28 88q-23 70 -23 155t15 160q-165 -485 -344 -485q-67 0 -111 63q-39 57 -39 127q0 36 39 168l180 608
q-48 -125 -228 -358q-162 -210 -284 -324q8 -63 8 -86q0 -100 -40 -207l-31 5q35 116 35 182q0 36 -9 69q-119 -119 -327 -215q-93 -43 -238 -43q-184 0 -345 118q-175 129 -175 306t134 285q124 100 306 100q413 0 613 -354q64 73 114 193q54 127 54 217q0 276 -222 276
q-96 0 -180 -93q-68 -77 -104 -183l-29 2l209 546q93 66 211 66q149 0 236 -82q90 -85 90 -233q0 -259 -146 -553q-5 -12 -16 -35q114 104 231 250q145 178 174 282l51 181q29 96 132 151q80 43 114 43q8 0 8 -8q-98 -76 -120 -162l-172 -659q-23 -88 -23 -125q0 -39 26 -69
t64 -30q115 0 207 277q139 421 192 513q156 277 429 277z" />
    <glyph glyph-name="afii10025" unicode="&#x417;" horiz-adv-x="1262" 
d="M842 504l-23 -8q-45 45 -117 45q-56 0 -100.5 -39t-44.5 -94q0 -59 63 -105q58 -43 119 -43q124 0 220 86q100 89 100 213q0 193 -277 193l9 47q245 25 245 164q0 62 -52 105q-49 40 -112 40q-102 0 -190 -57q-94 -60 -119 -154l-28 -2l167 440q101 80 291 80
q324 0 324 -278q0 -84 -63 -173q-60 -84 -140 -122q-38 -21 -115 -62q151 -57 198 -108q60 -67 60 -215q0 -219 -181 -356q-166 -124 -392 -124q-166 0 -298 104q-142 111 -142 272q0 140 72 229q78 96 214 96q199 0 312 -174z" />
    <glyph glyph-name="afii10026" unicode="&#x418;" horiz-adv-x="1262" 
d="M418 393q41 -47 147 -47q285 0 348 221l213 750q18 64 84 103q60 36 131 36q19 0 41 -4q-124 -48 -184 -305l-141 -600q-4 -17 -4 -62q0 -37 26.5 -63.5t63.5 -26.5q64 0 125 90q17 25 78 146l32 -4l-211 -621l-43 -2q7 37 31 107q-63 -117 -184 -117h-459
q-110 0 -173 77q-58 71 -58 183q0 103 36 201l191 520q0 35 -53 45q-21 2 -62 8q-26 4 -88 30q-58 25 -74 25q-49 0 -95 -79q-6 -11 -56 -123l-19 8l187 508q122 69 217 69q37 0 116.5 -41t127.5 -41q26 0 70.5 16t62.5 34l18 -25q-71 -58 -131 -213z" />
    <glyph glyph-name="afii10027" unicode="&#x419;" horiz-adv-x="1565" 
d="M698 416q-12 6 -24 6q-53 0 -53 -57q0 -63 54 -98q46 -31 113 -31q134 0 287 184q109 131 182 354l154 471q74 228 275 228q47 0 102 -15l-156 -467l-33 6q21 41 21 109q0 41 -43 41q-63 0 -119 -193l-112 -383q-11 -38 -11 -71q0 -46 25 -80q28 -39 72 -39q58 0 123 86
q50 67 79 141l33 -2l-215 -622l-45 2l31 82q-82 -82 -172 -82q-133 0 -133 161q0 79 28 202q33 152 39 200l-130 -246q-85 -153 -168 -229q-111 -101 -249 -101q-133 0 -226 80q-97 84 -97 215q0 103 58 170q62 70 163 70q86 0 147 -92zM926 952q0 126 -85 196
q-79 64 -208 64q-83 0 -138 -47q-59 -49 -59 -131q0 -85 60 -137q56 -49 143 -49q139 0 180 104l31 -8q-36 -100 -119.5 -158.5t-189.5 -58.5q-171 0 -284 85q-126 93 -126 259q0 181 149 288q133 95 320 95q189 0 319 -96q144 -106 144 -289q0 -130 -55 -322
q-7 -26 -101 -311q-7 -20 43 -67q-57 -74 -147 -74q-74 0 -109 70q64 16 88 88l119 358q1 4 13 70t12 71zM1221 1540q45 0 90 12q65 17 65 50q0 25 -51 70t-51 83q0 35 38 56q32 18 70 18q66 0 124 -50q61 -53 61 -118q0 -38 -29 -78q-49 -67 -143 -89q-57 -13 -174 -13
q-119 0 -177 13q-96 22 -145 89q-29 40 -29 78q0 65 61 118q58 50 124 50q39 0 70 -18q38 -21 38 -56q0 -38 -51 -83t-51 -70q0 -33 67 -50q47 -12 93 -12z" />
    <glyph glyph-name="afii10028" unicode="&#x41a;" horiz-adv-x="1778" 
d="M844 483l-10 -18q-66 80 -112 107q-58 34 -153 34q-86 0 -148 -45q-69 -51 -69 -133q0 -90 87 -145q75 -47 171 -47q136 0 255 121q101 102 153 247l172 475q-44 -18 -109 -18q-32 0 -88 15.5t-75 15.5q-85 0 -132 -79q-10 -15 -61 -151h-35l180 547q94 16 170 16
q45 0 133.5 -18t133.5 -18q47 0 94 26q53 28 63 70h33l-67 -117q-87 -152 -218 -618l33 30q54 142 185 385q163 303 423 303q122 0 200.5 -80.5t78.5 -201.5q0 -114 -76 -190t-190 -76q-195 0 -234 176q11 -2 25 -2q80 0 80 59q0 61 -76 61q-119 0 -236 -154
q-41 -54 -155 -257q143 121 221 121q41 0 67.5 -30.5t26.5 -72.5q0 -58 -37 -188.5t-37 -171.5q0 -38 27.5 -68.5t65.5 -30.5q99 0 168 86q24 30 98 170l33 -6l-248 -632l-31 8l41 114q-111 -110 -235 -110q-85 0 -138 45q-57 48 -57 131q0 37 56 208q36 110 73 220
q33 104 33 125q0 59 -54 59q-60 0 -133 -127q-24 -43 -86 -184q-57 -130 -114 -213q-90 -131 -217 -207q-138 -82 -287 -82q-308 0 -436 185q-70 101 -70 208q0 82 39 166q105 226 399 226q131 0 241 -76q104 -71 165 -193z" />
    <glyph glyph-name="afii10029" unicode="&#x41b;" horiz-adv-x="1696" 
d="M1468 954q0 158 -161 158q-145 0 -248 -85q-79 -65 -162 -210l-37 2l211 547q174 90 326 90q264 0 264 -211q0 -88 -64 -318l-86 -294q-18 -64 -18 -115q0 -37 40 -68q37 -28 75 -28q73 0 136 96q31 46 81 162l26 -2l-235 -690l-37 -2l27 98q-105 -80 -164 -80
q-172 0 -172 148q0 52 24 131l138 456q36 119 36 215zM1102 831q0 57 -47 66q23 51 86 97q67 48 121 48q22 0 47 -6q-35 -28 -56 -87q-14 -50 -28 -101q-48 -166 -96 -333q-73 -223 -154 -320q-188 -224 -469 -224q-208 0 -344 95q-156 109 -156 309q0 167 130 279
q125 108 294 108q158 0 283 -92q135 -98 151 -250q-26 86 -101.5 139t-166.5 53q-104 0 -181 -55q-85 -62 -85 -162q0 -97 74 -158q69 -57 169 -57q128 0 231 62q108 64 159 178q33 75 89 238q50 144 50 173z" />
    <glyph glyph-name="afii10030" unicode="&#x41c;" horiz-adv-x="2097" 
d="M860 819l211 547q174 90 326 90q144 0 208 -57q68 -61 68 -203q0 -51 -12 -100q98 196 154 258q103 116 264 116q38 0 112.5 -5t112.5 -5q24 0 66 18t63 19l2 -2v-4q-9 -17 -22 -47v-2q-130 -303 -207 -303q-27 0 -81 3t-81 3q-230 0 -307 -64q-103 -86 -178 -364
l-166 -617q-10 -36 112 -106l-444 2q84 20 121 47q46 35 69 109l181 587q36 117 36 215q0 158 -161 158q-145 0 -248 -85q-79 -65 -162 -210zM2107 1092q-111 -74 -137 -168l-82 -291q-18 -64 -18 -115q0 -37 40 -68q37 -28 75 -28q73 0 137 97q28 42 80 161l26 -2
l-235 -690l-37 -2l26 98q-104 -80 -163 -80q-172 0 -172 148q0 46 24 131l180 635q26 94 94 131q44 24 162 43zM864 420q-26 86 -101.5 139t-166.5 53q-104 0 -181 -55q-85 -62 -85 -162q0 -97 74 -158q69 -57 169 -57q125 0 232 62q114 66 158 178l86 217q53 134 53 194
q0 57 -47 66q23 51 86 97q67 48 121 48q22 0 47 -6q-35 -28 -56 -87q-14 -50 -28 -101q-48 -166 -96 -333q-73 -223 -154 -320q-188 -224 -469 -224q-208 0 -344 95q-156 109 -156 309q0 167 130 279q125 108 294 108q158 0 283 -92q135 -98 151 -250z" />
    <glyph glyph-name="afii10031" unicode="&#x41d;" horiz-adv-x="1737" 
d="M803 520l-19 -12q-36 43 -101.5 73.5t-121.5 30.5q-83 0 -147 -60t-64 -142q0 -78 60 -131.5t139 -53.5q110 0 209 80.5t129 188.5l160 573q-115 0 -220 23h2q-72 -3 -102 -43q-32 -43 -96 -205l-31 -2l188 561q116 43 199 43q39 0 114.5 -12.5t112.5 -12.5q50 0 152 49
q-65 -75 -152 -268q-82 -184 -104 -291q-7 -35 -31 -125l-100 -378q-115 -433 -512 -433q-190 0 -320 103q-141 112 -141 297q0 157 121 269t279 112q253 0 397 -234zM1786 1466q119 0 184.5 -65.5t65.5 -183.5q0 -115 -86 -189q-82 -70 -199 -70q-98 0 -141 58q14 -6 28 -6
q31 0 54.5 20.5t23.5 50.5q0 60 -78 60q-97 0 -174 -267l-50 -158q-30 -104 -30 -165q0 -72 31 -120q37 -56 105 -56q85 0 169 110q74 97 89 191l32 -6l-239 -697l-37 7l55 180q-134 -174 -250 -174q-72 0 -121 45t-49 116q0 50 27 140l281 936q73 243 309 243zM1075 578
l74 219q47 23 94 45q55 28 78 67l-61 -157q-21 -53 -42.5 -72.5t-80.5 -40.5z" />
    <glyph glyph-name="afii10032" unicode="&#x41e;" 
d="M1405 1075q-19 30 -39 70q-91 182 -319 182q-244 0 -410 -181q-162 -176 -162 -423q0 -156 72 -244l90 221q0 23 -3 67.5t-3 66.5q0 86 59 188q121 209 332 209q205 0 330 -134q121 -130 121 -337q0 -316 -202 -543q-209 -237 -521 -237q-140 0 -295 88l-41 -103l-41 12
l41 115q-114 107 -151.5 194.5t-37.5 245.5q0 154 78 342q108 260 302 424q217 183 478 183q221 0 332 -125q70 -79 70 -146q0 -71 -80 -135zM872 319q188 0 320.5 132.5t132.5 320.5q0 137 -77 233q-83 105 -216 105q-139 0 -227 -141q69 43 156 43q96 0 157.5 -68
t61.5 -164q0 -115 -77 -200q-80 -88 -194 -88q-68 0 -144 48q-72 46 -110 107l-73 -201q32 -55 129 -93q86 -34 161 -34zM901 766q30 0 52 24t22 54q0 78 -98 78q-68 0 -68 -60q0 -36 28.5 -66t63.5 -30z" />
    <glyph glyph-name="afii10033" unicode="&#x41f;" horiz-adv-x="1729" 
d="M707 848l190 549q154 84 338 84q178 0 547 -80q46 -10 76 -10q31 0 59 37q19 32 39 63h29q-58 -134 -115 -269q-86 -169 -197 -169q-144 0 -319 37q-160 34 -248 34q-287 0 -369 -278zM987 502q12 23 29 67q31 74 61 149q37 96 37 154q0 43 -53 86q137 115 237 115
q29 0 60 -6q-65 -41 -111 -193l-82 -270q-22 -75 -71 -223q51 -117 51 -236q0 -106 -19 -180h-30q16 135 16 164q0 119 -51 193q-29 -53 -80 -113q-104 -120 -208 -174q-112 -58 -263 -58q-193 0 -339 99q-165 112 -165 297q0 179 135 282q123 93 308 93q136 0 290 -74
q144 -69 248 -172zM598 600q-95 0 -165 -46q-81 -53 -81 -144q0 -183 244 -183q109 0 216 63q114 69 146 167q-134 143 -360 143zM1686 1014q8 0 8 -8q-103 -81 -121 -162l-49 -217q-23 -102 -23 -125q0 -39 26 -69t64 -30q111 0 230 287h22l-235 -694l-39 -2l2 63
q-45 -71 -129 -71q-79 0 -135 54.5t-56 133.5q0 44 39 168l150 477q31 99 131 152q81 43 115 43z" />
    <glyph glyph-name="afii10034" unicode="&#x420;" horiz-adv-x="1458" 
d="M1028 553q39 76 49 156q-82 43 -119 112q45 -9 136 -24q20 82 20 118q0 53 -55 60q74 110 182 110q38 0 82 -18q-55 -53 -80 -125q-8 -23 -35 -145q195 4 195 182q0 156 -197 156q-275 0 -555 -295l-39 4l215 510q189 116 406 116q176 0 289 -91q123 -99 123 -271
q0 -230 -205 -356q-73 -45 -252 -66q-10 -65 -74 -217q90 -150 90 -279q0 -110 -28 -219l-43 -2q30 99 30 207q0 146 -73 232q-184 -441 -611 -441q-187 0 -322 105q-147 114 -147 295q0 198 131 316q126 114 325 114q159 0 304 -70q107 -52 258 -174zM621 655
q-91 0 -125 -14q-146 -60 -146 -203q0 -192 250 -192q126 0 236 70q114 71 161 186q-67 67 -173.5 110t-202.5 43z" />
    <glyph glyph-name="afii10035" unicode="&#x421;" horiz-adv-x="1343" 
d="M684 659l-94 -262q45 -47 143 -75q84 -25 162 -25q238 0 409 178q93 96 126 176l38 6q-149 -336 -247 -456q-179 -219 -451 -219q-67 0 -151 16q-99 19 -138 49l-28 -78l-39 21l28 82q-98 66 -150 195q-46 114 -46 245q0 207 124 439q116 217 285 360q194 164 426 164
q188 0 302 -103q120 -107 120 -293q0 -197 -167 -360.5t-365 -163.5q-148 0 -287 104zM1034 905q89 0 149 64.5t60 154.5q0 85 -69.5 144t-155.5 59q-219 0 -381 -218q-148 -200 -148 -427q0 -188 72 -256q109 289 254 741q10 -262 219 -262z" />
    <glyph glyph-name="afii10036" unicode="&#x422;" horiz-adv-x="2122" 
d="M987 502q12 23 29 67q31 74 61 149q37 96 37 154q0 43 -53 86q137 115 237 115q29 0 60 -6q-65 -41 -111 -193l-82 -270q-22 -75 -71 -223q51 -117 51 -236q0 -106 -19 -180h-30q16 135 16 164q0 119 -51 193q-29 -53 -80 -113q-104 -120 -208 -174q-112 -58 -263 -58
q-193 0 -339 99q-165 112 -165 297q0 179 135 282q123 93 308 93q136 0 290 -74q144 -69 248 -172zM598 600q-95 0 -165 -46q-81 -53 -81 -144q0 -183 244 -183q109 0 216 63q114 69 146 167q-134 143 -360 143zM2079 1014q8 0 8 -8q-103 -81 -121 -162l-49 -217
q-23 -102 -23 -125q0 -39 26 -69t65 -30q117 0 229 287h22l-235 -694l-39 -2l2 63q-45 -71 -129 -71q-80 0 -135 54t-55 134q0 47 38 168l150 477q31 99 131 152q81 43 115 43zM1724 1020q9 0 9 -8q-50 -39 -60 -49q-30 -28 -49 -60q-7 -13 -18 -49l-156 -528
q-1 -3 -59 -179q-31 -94 -138 -145q-81 -39 -114 -39q-10 0 -9 8q47 37 60 49q32 29 49 60q7 12 18 49l216 707q21 68 101.5 126t149.5 58zM2238 1391q32 0 60 37q19 31 39 63h28l-114 -270q-84 -163 -197 -168q-124 -6 -135 -6q-137 0 -406.5 38.5t-406.5 38.5
q-285 0 -369 -278l-30 2l190 549q156 84 338 84q52 0 445 -44q420 -46 558 -46z" />
    <glyph glyph-name="afii10037" unicode="&#x423;" 
d="M1231 639q-80 -107 -164 -107q-91 0 -156 67q-61 65 -77 191q-8 104 -16 209q-15 110 -75 150q-2 11 -34 20q-26 7 -41 7q-77 0 -128 -35q-57 -41 -57 -115q0 -160 168 -160q64 0 123 62q-26 -78 -124 -131q-90 -49 -179 -49q-135 0 -232 104q-94 101 -94 238
q0 102 78 200q129 162 385 162q167 0 276 -103t109 -268q0 -30 -6 -90t-6 -90q0 -242 149 -242q99 0 178 209q70 194 139 389q95 209 232 209q52 0 115 -32l-135 -385q-45 61 -78 61q-30 0 -53 -31t-199 -516q-91 -252 -162 -350q-111 -153 -315 -215q-59 -18 -170 -18
q-102 0 -207 44q-47 19 -188 97l-58 -156l-39 2l218 623q58 -120 183.5 -201.5t256.5 -81.5q138 0 245 101q97 91 138 231z" />
    <glyph glyph-name="afii10038" unicode="&#x424;" horiz-adv-x="1335" 
d="M1192 356l18 -8l-133 -319q-111 -70 -217 -70q-41 0 -116.5 42t-116.5 42q-90 0 -152 -59l-14 32q91 75 126 148q19 40 60 190q-155 12 -281 98q-147 100 -147 244q0 404 629 404l18 55q-49 -25 -116 -25q-29 0 -86.5 28t-75.5 28q-39 0 -72 -43q-23 -37 -47 -74l-18 8
l133 320q123 69 217 69q41 0 116.5 -42t116.5 -42q89 0 152 60l14 -33q-79 -65 -122 -147q-20 -37 -72 -179q51 -9 151 -34q114 -38 193 -115q92 -91 92 -199q0 -397 -633 -397l-21 -82q55 39 123 39q29 0 86.5 -27.5t75.5 -27.5q73 0 119 116zM825 389q256 26 318 283
q6 25 6 61q0 197 -158 301zM838 1051q-255 -25 -318 -283q-6 -24 -6 -63q0 -194 148 -299z" />
    <glyph glyph-name="afii10039" unicode="&#x425;" horiz-adv-x="1565" 
d="M520 -27q-194 0 -336 114q-153 123 -153 312q0 153 105 265t257 112q185 0 285 -63q106 -65 174 -232l-21 -6q-94 160 -243 160q-87 0 -145 -48q-62 -52 -62 -138q0 -88 75 -148q69 -55 160 -55q157 0 282.5 110.5t152.5 266.5q-16 10 -45 10q-60 0 -103 -68v15
q0 88 46 151q50 70 134 76q7 45 7 63q0 119 -81.5 195t-201.5 76q-265 0 -344 -248h-29l162 502q188 67 262 67q361 0 361 -399q149 407 469 407q94 0 156 -51q67 -55 67 -147q0 -103 -66 -166.5t-170 -63.5q-51 0 -86 15q19 28 19 61q0 72 -80 72q-102 0 -202 -143
q-85 -122 -107 -240q14 -4 30 -4q49 0 86 24q19 12 68 60l-76 -156q-28 -58 -55.5 -78t-93.5 -32q-15 -84 -15 -101q0 -76 47 -121t123 -45q83 0 156 67q70 64 90 148h27l-179 -598l-32 2l14 107q-51 -58 -90 -77q-43 -21 -117 -21q-71 0 -125.5 51t-54.5 121q0 56 16 143
q22 114 25 141q-13 -33 -72 -149q-83 -163 -184 -235q-112 -81 -287 -81z" />
    <glyph glyph-name="afii10040" unicode="&#x426;" horiz-adv-x="1565" 
d="M698 416q-12 6 -24 6q-53 0 -53 -57q0 -63 54 -98q46 -31 113 -31q134 0 287 184q109 131 182 354l154 471q74 228 275 228q47 0 102 -15l-156 -467l-33 6q21 41 21 109q0 41 -43 41q-63 0 -119 -193l-112 -383q-11 -38 -11 -71q0 -46 25 -80q28 -39 72 -39q58 0 123 86
q50 67 79 141l33 -2l-215 -622l-45 2l31 82q-82 -82 -172 -82q-133 0 -133 161q0 79 28 202q33 152 39 200l-130 -246q-85 -153 -168 -229q-111 -101 -249 -101q-133 0 -226 80q-97 84 -97 215q0 103 58 170q62 70 163 70q86 0 147 -92zM926 952q0 126 -85 196
q-79 64 -208 64q-83 0 -138 -47q-59 -49 -59 -131q0 -85 60 -137q56 -49 143 -49q139 0 180 104l31 -8q-36 -100 -119.5 -158.5t-189.5 -58.5q-171 0 -284 85q-126 93 -126 259q0 181 149 288q133 95 320 95q189 0 319 -96q144 -106 144 -289q0 -130 -55 -322
q-7 -26 -101 -311q-7 -20 43 -67q-57 -74 -147 -74q-74 0 -109 70q64 16 88 88l119 358q1 4 13 70t12 71z" />
    <glyph glyph-name="afii10041" unicode="&#x427;" horiz-adv-x="1368" 
d="M1018 639q-123 -90 -244 -90q-201 0 -311 166q37 -13 94 -13q111 0 190.5 69.5t79.5 178.5q0 119 -81 182q-73 58 -195 58q-78 0 -127 -35q-57 -40 -57 -115q0 -159 168 -159q63 0 122 61q-26 -78 -124 -131q-90 -49 -179 -49q-136 0 -232 104q-93 101 -93 238
q0 105 77 201q130 161 398 161q181 0 318 -100q151 -110 151 -285q0 -153 -67 -244q-52 -72 -197 -163q67 -41 141 -41q86 0 148.5 58.5t131.5 270.5q86 265 125 338q86 166 211 166q52 0 115 -32l-135 -385q-45 61 -78 61q-29 0 -53 -31q-41 -52 -113 -292
q-69 -229 -69 -285q0 -40 25 -69.5t65 -29.5q117 0 229 287h23l-236 -694l-39 -2l2 63q-45 -71 -129 -71q-79 0 -134.5 54.5t-55.5 133.5q0 59 60 246q38 109 75 219z" />
    <glyph glyph-name="afii10042" unicode="&#x428;" horiz-adv-x="1532" 
d="M639 393q31 -22 68 -22q144 0 208 182l265 754q9 25 -54 45q109 108 199 108q39 0 72 -14l2 -2q-61 -37 -90 -121l-301 -860q-21 -60 -21 -72q0 -31 47 -31q173 0 232 207l213 750q18 65 84 103q60 36 131 36q18 0 41 -4q-125 -50 -185 -305l-190 -811
q-80 -342 -346 -342h-502q-154 0 -248 94l111 469h28q-12 -22 -12 -72q0 -94 70 -94q55 0 78 64l190 520q0 35 -53 45q-21 2 -62 8q-25 4 -88 30q-58 25 -73 25q-50 0 -95 -79q-7 -10 -57 -123l-18 8l186 508q122 69 217 69q37 0 116.5 -41t127.5 -41q26 0 70 16t63 34
l18 -25q-44 -36 -73 -85t-59 -128q-25 -65 -49 -131q-41 -102 -261 -672z" />
    <glyph glyph-name="afii10043" unicode="&#x429;" horiz-adv-x="1548" 
d="M1458 111q-63 -117 -184 -117h-811q-157 0 -248 94l111 469h28q-12 -22 -12 -72q0 -94 70 -94q53 0 77 64l191 520q0 35 -53 45q-21 2 -62 8q-26 4 -88 30q-58 25 -74 25q-49 0 -95 -79q-6 -11 -56 -123l-19 8l187 508q122 69 217 69q36 0 115.5 -41t128.5 -41
q27 0 70.5 16t62.5 34l18 -25q-44 -36 -73 -85t-59 -128q-25 -65 -49 -131q-41 -102 -261 -672q31 -22 67 -22q145 0 209 182l264 754q9 25 -53 45q109 108 199 108q39 0 72 -14l2 -2q-61 -37 -90 -121l-302 -860q-20 -57 -20 -72q0 -31 47 -31q173 0 232 207l213 750
q19 66 83 104q59 35 132 35q18 0 41 -4q-125 -48 -185 -305l-141 -600q-4 -17 -4 -62q0 -37 26.5 -63.5t63.5 -26.5q64 0 125 90q17 25 78 146l32 -4l-211 -621l-43 -2q11 48 31 107z" />
    <glyph glyph-name="afii10044" unicode="&#x42a;" horiz-adv-x="1589" 
d="M975 750q111 -22 194.5 -112t96.5 -202q-24 78 -110.5 145.5t-166.5 67.5q-104 0 -181 -55q-85 -62 -85 -162q0 -77 61 -151t215 -74q134 0 236 119q98 114 98 249q0 84 -69 145q-67 58 -152 58q-63 0 -137 -28zM643 735q73 33 94 33q90 65 207 110q127 48 227 48
q189 0 303 -104q119 -107 119 -292q0 -142 -102 -282q-107 -146 -256 -207q-130 -53 -328 -53q-208 0 -343 94q-156 108 -156 309q0 51 10 80l172 504q5 13 -19 29q-19 13 -34 16q-21 2 -62 8q-26 4 -88 31q-58 24 -74 24q-49 0 -95 -79q-6 -11 -56 -123l-19 8l187 508
q122 69 217 69q37 0 116.5 -41t127.5 -41q26 0 70.5 16t62.5 34l18 -25q-91 -73 -139 -213z" />
    <glyph glyph-name="afii10045" unicode="&#x42b;" horiz-adv-x="1991" 
d="M811 756q112 -30 194 -117q84 -91 97 -203q-24 78 -110.5 145.5t-166.5 67.5q-104 0 -181 -55q-85 -62 -85 -162q0 -111 86 -172q76 -53 191 -53q133 0 235 119q98 114 98 249q0 86 -71 146q-67 57 -154 57q-76 0 -133 -22zM258 266q-18 58 -18 125q0 102 67 203
q66 98 160 143l182 525q-18 -1 -18 12q0 43 110 114q106 68 154 68q9 0 8 -8q-90 -71 -121 -162l-170 -508q173 148 396 148q187 0 302 -104q120 -108 120 -292q0 -141 -103 -282q-107 -146 -256 -207q-130 -53 -328 -53q-225 0 -356 108l-190 -133q0 145 61 303zM2034 1466
q119 0 184.5 -65.5t65.5 -183.5q0 -115 -86 -189q-82 -70 -199 -70q-98 0 -141 58q14 -6 28 -6q31 0 54.5 20.5t23.5 50.5q0 60 -78 60q-97 0 -174 -267l-50 -158q-30 -104 -30 -165q0 -71 31 -119q37 -57 104 -57q85 0 169 110q75 98 89 191l33 -6l-239 -697l-37 7l55 180
q-134 -174 -250 -174q-72 0 -121 44.5t-49 116.5q0 50 27 140l280 936q73 243 310 243zM1393 774l73 219q48 22 95 45q55 28 77 68l-61 -158q-2 -10 -8 -30q-17 -47 -115 -82z" />
    <glyph glyph-name="afii10046" unicode="&#x42c;" horiz-adv-x="1425" 
d="M565 762q194 164 426 164q188 0 303 -103q119 -108 119 -293q0 -142 -102 -282q-107 -146 -256 -207q-131 -53 -328 -53q-208 0 -344 95q-156 108 -156 308q0 97 55 188q53 88 138 140l188 543q34 99 131 151q80 43 115 43q9 0 8 -8q-90 -71 -121 -162zM807 754
q111 -38 186 -120q80 -87 92 -198q-24 78 -110 145.5t-166 67.5q-104 0 -181 -55q-85 -62 -85 -162q0 -77 61 -151t215 -74q134 0 236 118q98 114 98 250q0 85 -69.5 144t-155.5 59q-74 0 -121 -24z" />
    <glyph glyph-name="afii10047" unicode="&#x42d;" horiz-adv-x="1548" 
d="M877 1475q295 0 504 -184q218 -193 218 -484q0 -328 -228 -580q-235 -258 -560 -258q-239 0 -397 135q-168 144 -168 379q0 149 95 241.5t245 92.5q151 0 186 -143q-44 12 -55 12q-76 0 -117 -55q-37 -49 -37 -127q0 -127 136 -192q104 -50 247 -50q198 0 346 136
q152 139 152 335q0 200 -151 329q-143 122 -346 122q-357 0 -607 -318q-36 -45 -45 -108l-35 18l154 492q3 11 48 55q153 152 415 152zM1178 440q2 14 2 36q0 168 -64 220q-16 13 -22 13q-14 0 -66 -138l-31 15l142 418q127 -102 127 -248q0 -189 -88 -316z" />
    <glyph glyph-name="afii10048" unicode="&#x42e;" horiz-adv-x="2449" 
d="M811 520l-18 -12q-90 104 -224 104q-83 0 -147 -60t-64 -142q0 -78 60 -131.5t139 -53.5q111 0 211 81q97 79 127 188l160 573q-113 0 -219 23h2q-73 -2 -104 -44t-95 -204l-31 -2l189 561q115 43 198 43q39 0 115 -12.5t113 -12.5q49 0 151 49q-64 -73 -151 -268
q-83 -186 -105 -291q-7 -36 -31 -125l-100 -378q-115 -433 -512 -433q-286 0 -407 209q-54 93 -54 191q0 157 121 269t279 112q254 0 397 -234zM1083 578l74 219q47 22 95 45q55 28 77 67l-61 -157q-2 -11 -8 -31q-17 -47 -115 -82zM1757 -16q-219 0 -353 155
q-128 147 -128 369q0 375 226 655q242 299 609 299q422 0 422 -254q0 -47 -27 -81q-29 -37 -75 -37q-64 251 -334 251q-233 0 -408 -193q-169 -187 -169 -423q0 -136 27 -216q36 -107 132 -171q80 -53 156 -53q219 0 373.5 151.5t154.5 370.5q0 104 -51 172q-57 76 -158 76
q-69 0 -115 -45.5t-46 -114.5q0 -94 73 -94q21 0 49 13.5t35 31.5q7 -46 7 -58q0 -95 -51 -156q-54 -65 -146 -65t-148 69q-51 64 -51 159q0 178 114 285q111 104 290 104q161 0 262 -129q92 -119 92 -285q0 -252 -118 -444q-126 -203 -355 -287q-151 -55 -289 -55z" />
    <glyph glyph-name="afii10049" unicode="&#x42f;" horiz-adv-x="1638" 
d="M1726 1456q9 0 9 -8q-87 -64 -121 -162l-230 -659q-22 -63 -22 -125q0 -39 26 -69t64 -30q117 0 229 287h23l-236 -694l-38 -2l2 63q-46 -71 -129 -71q-79 0 -135 54.5t-56 133.5q0 59 39 168l330 920q36 100 131 151q81 43 114 43zM848 618q-106 0 -191.5 80t-103.5 188
q-8 51 -8 112q0 211 134.5 341.5t344.5 130.5q209 0 385 -176l-250 -665q-121 -321 -236 -453q-170 -196 -454 -196q-102 0 -207 44q-47 19 -188 97l-58 -156l-39 2l218 623q58 -120 183.5 -201.5t256.5 -81.5q195 0 334 147q94 100 198 322q27 57 27 115q0 98 -65 170
t-161 72q-122 0 -211 -68q-98 -75 -98 -193q0 -66 44 -119q47 -57 112 -57q204 0 250 279q37 -73 37 -141q0 -108 -76 -165q-67 -51 -178 -51z" />
    <glyph glyph-name="afii10065" unicode="&#x430;" horiz-adv-x="932" 
d="M995 774l-315 -160q-23 23 -76 23q-92 0 -162 -105q-63 -95 -63 -192q0 -55 34.5 -94t88.5 -39q99 0 167 114q58 99 58 203q0 33 -16 66l284 141q-43 -119 -86 -239q-73 -207 -73 -244q0 -39 43 -39q34 0 104 117l21 -4q-52 -108 -103 -216q-74 -129 -182 -129
q-105 0 -105 125q0 57 15 103q-95 -125 -111 -143q-81 -87 -149 -87q-83 0 -139 65q-54 62 -54 146q0 230 180 451q189 233 412 233q166 0 227 -96z" />
    <glyph glyph-name="afii10066" unicode="&#x431;" horiz-adv-x="891" 
d="M610 1096q0 102 41 207q50 126 131 153q40 14 95 14q24 0 70.5 -6t70.5 -6q65 0 94 51l-82 -239q-11 -32 -92 -32h-24h-24q-85 0 -85 -40q0 -77 83 -246t83 -299q0 -220 -116 -431q-136 -247 -337 -247q-138 0 -217 105q-72 94 -72 237q0 196 100 349q113 171 298 190
l98 -160q51 -96 51 -178q0 -20 -2 -43h-29q5 17 5 31q0 59 -57 100q-51 37 -113 37q-97 0 -150 -66q-49 -60 -49 -159q0 -79 50.5 -135t129.5 -56q122 0 200 101q70 92 70 217q0 98 -110.5 289.5t-110.5 261.5z" />
    <glyph glyph-name="afii10067" unicode="&#x432;" horiz-adv-x="924" 
d="M453 332q0 -105 133 -105q82 0 151.5 68.5t69.5 150.5q0 111 -109 111q-106 0 -143 -102l-18 4l114 307q70 12 109 12q94 0 153.5 -55t59.5 -148v-45q0 -185 -137 -360q-146 -186 -324 -186q-268 0 -268 219q0 181 297 923q46 114 141 177q86 57 209 57q244 0 244 -234
q0 -125 -98.5 -220t-223.5 -95q-55 0 -98 40t-45 95q57 -82 135 -82q44 0 77 66q27 55 27 104q0 46 -29 79.5t-75 33.5q-34 0 -63 -26.5t-46 -71.5q-64 -170 -227 -637q-16 -46 -16 -80z" />
    <glyph glyph-name="afii10068" unicode="&#x433;" horiz-adv-x="786" 
d="M471 639q0 -29 61 -29q21 0 37 4q-135 -71 -200 -71q-109 0 -109 88q0 113 131 182q109 57 232 57q225 0 225 -151q0 -168 -139 -227q-194 -83 -202 -88q-132 -73 -132 -164q0 -86 100 -86q90 0 160 77q8 20 8 33q0 27 -115 33q99 80 209 80q117 0 117 -103
q0 -73 -76 -161q-115 -133 -375 -133q-94 0 -155 39q-72 46 -72 135q0 151 123 250q43 35 229 130q123 63 123 125q0 58 -69 58q-40 0 -72 -19q-39 -22 -39 -59z" />
    <glyph glyph-name="afii10069" unicode="&#x434;" horiz-adv-x="924" 
d="M776 870q170 0 213 -98l-270 -164q-33 37 -82 37q-102 0 -186 -132q-76 -118 -76 -228q0 -52 34.5 -85.5t86.5 -33.5q96 0 182 133q78 122 78 225q0 29 -17 58l269 157l-267 -860q-62 -200 -168 -293q-118 -102 -319 -102q-108 0 -196 51q-103 60 -103 160q0 85 79 144
q73 55 161 55q85 0 143 -38q44 -30 102 -108l-18 -18q-47 61 -137 61q-105 0 -105 -104q0 -90 105 -90q100 0 160 69q44 49 83 160q33 86 65 173q45 123 48 173q-109 -131 -122 -143q-77 -72 -165 -72q-176 0 -176 221q0 245 162 447q197 245 436 245z" />
    <glyph glyph-name="afii10070" unicode="&#x435;" horiz-adv-x="852" 
d="M416 475q55 -82 135 -82q58 0 106 46t48 104q0 56 -43 92q-40 33 -97 33q-85 0 -148 -90q-57 -81 -57 -170q0 -96 74 -162q71 -64 168 -64q105 0 209.5 80.5t138.5 181.5l27 -6q-19 -61 -105 -209q-143 -247 -352 -247q-136 0 -224 102q-83 97 -83 235q0 151 82 285
q79 130 213 207q98 57 178 57q244 0 244 -233q0 -124 -99 -220t-223 -96q-69 0 -126 43q-62 47 -66 113z" />
    <glyph glyph-name="afii10072" unicode="&#x436;" horiz-adv-x="1204" 
d="M264 582l94 245q48 41 172 41q34 0 62.5 -29t28.5 -63q0 -29 -3.5 -88.5t-3.5 -88.5q0 -118 62 -140q47 146 102 358q72 274 72 350q0 70 -57 103q68 0 240 65q124 50 247 99l2 -25q-157 -82 -205 -229l-116 -353l-111 -368q87 28 176 198q93 178 124 194.5t81 16.5
q23 0 115 -8q-17 -37 -93 -246q-39 66 -77 66q-28 0 -86 -93q-65 -104 -148 -136q86 30 168 30q119 0 119 -125q0 -17 -15.5 -53.5t-15.5 -52.5q0 -31 35 -31q65 0 96 141l29 -14q-8 -35 -37 -102q-59 -133 -84 -167q-62 -85 -158 -85q-114 0 -114 110q0 29 17 83t17 71
q0 100 -71 100q-38 0 -72 -16q-38 -41 -67 -124q-27 -79 -27 -138q0 -43 31 -74q-31 -8 -54 -8q-18 0 -53 6t-53 6q-19 0 -57.5 -6t-57.5 -6q-22 0 -47 8q60 40 100 129q37 83 37 160q0 28 -8 47q-22 16 -61 16q-38 0 -76 -31t-53 -69q-8 -33 -28 -98q-59 -166 -206 -166
q-113 0 -113 123q0 35 14 118t25 113l37 14q-22 -61 -22 -96q0 -45 37 -45q38 0 53 31q7 37 31 106q66 125 190 125q80 0 152 -30q-51 25 -64 82q0 2 -7 94q-4 47 -32 53q-17 14 -41 14q-58 0 -172 -112z" />
    <glyph glyph-name="afii10073" unicode="&#x437;" horiz-adv-x="754" 
d="M344 291l21 76q200 23 200 133q0 50 -41 84t-92 34q-85 0 -156 -45q-75 -49 -96 -127l-22 -2l135 359q82 65 237 65q263 0 263 -227q0 -88 -83 -182q-79 -89 -167 -115q105 -40 131 -57q52 -35 83 -112q25 -63 25 -118q0 -236 -184 -407q-181 -166 -418 -166
q-112 0 -200 49q-107 59 -107 162q0 85 79 144q73 55 161 55q85 0 143 -38q44 -30 102 -108l-18 -18q-47 61 -137 61q-105 0 -105 -104q0 -90 105 -90q27 0 94 44q107 69 172 177q68 114 68 235q0 118 -40 166.5t-153 71.5z" />
    <glyph glyph-name="afii10074" unicode="&#x438;" horiz-adv-x="1024" 
d="M383 -23q-51 0 -87 33.5t-36 83.5q0 69 111 389q30 86 30 109q0 45 -39 45q-36 0 -92 -117h-26q9 40 35 96q53 117 88 161q66 85 153 85q121 0 121 -125q0 -76 -69.5 -249.5t-69.5 -229.5q0 -63 55 -63q134 0 231 380q48 189 48 216q0 40 -19 79q70 -20 146 -20
q110 0 153 27q-60 -106 -112 -267l-82 -278q-23 -75 -23 -94q0 -39 29 -39q45 0 96 123l33 -3q-58 -128 -65 -143q-48 -99 -77 -131q-52 -57 -129 -57q-114 0 -114 141q0 78 14 121q-108 -166 -192 -239q-41 -34 -111 -34z" />
    <glyph glyph-name="afii10075" unicode="&#x439;" horiz-adv-x="1024" 
d="M383 -23q-51 0 -87 33.5t-36 83.5q0 69 111 389q30 86 30 109q0 45 -39 45q-36 0 -92 -117h-26q9 40 35 96q53 117 88 161q66 85 153 85q121 0 121 -125q0 -76 -69.5 -249.5t-69.5 -229.5q0 -63 55 -63q134 0 231 380q48 189 48 216q0 40 -19 79q70 -20 146 -20
q110 0 153 27q-60 -106 -112 -267l-82 -278q-23 -75 -23 -94q0 -39 29 -39q45 0 96 123l33 -3q-58 -128 -65 -143q-48 -99 -77 -131q-52 -57 -129 -57q-114 0 -114 141q0 78 14 121q-108 -166 -192 -239q-41 -34 -111 -34zM762 977q110 0 110 43q0 19 -36.5 51t-36.5 59
q0 54 78 54q47 0 90 -36.5t43 -82.5q0 -28 -21 -57q-55 -76 -227 -76q-252 0 -252 131q0 48 42 84.5t91 36.5q76 0 76 -54q0 -27 -36 -59t-36 -51q0 -43 115 -43z" />
    <glyph glyph-name="afii10076" unicode="&#x43a;" horiz-adv-x="942" 
d="M582 451q85 30 168 30q118 0 118 -125q0 -17 -15 -53t-15 -53q0 -31 34 -31q66 0 97 141l28 -14q-9 -40 -36 -102q-59 -133 -84 -167q-62 -85 -158 -85q-115 0 -115 110q0 29 17.5 83.5t17.5 70.5q0 100 -72 100q-39 0 -71 -16q-36 -38 -65.5 -122.5t-29.5 -139.5
q0 -43 31 -74q-31 -8 -53 -8q-18 0 -53.5 6t-53.5 6q-24 0 -143 -24q52 77 104 251l68 248q31 107 31 109q0 45 -39 45q-37 0 -92 -117h-27q9 40 35 96q54 117 88 162q66 84 154 84q120 0 120 -125q0 -70 -82 -278q89 29 176 198q92 177 124 194t81 17q25 0 115 -8
q-16 -38 -92 -246q-39 66 -78 66q-28 0 -86 -93q-66 -104 -147 -136z" />
    <glyph glyph-name="afii10077" unicode="&#x43b;" horiz-adv-x="860" 
d="M115 -29q-191 0 -191 156q0 85 50 136.5t135 51.5q61 0 102 -43q-22 0 -44 -20.5t-22 -42.5q0 -39 37 -39q55 0 101 133q42 135 84 271q59 165 136 220q53 37 120 46q29 4 129 4q55 0 156 12q144 17 157 18l-4 -24q-62 -17 -96 -47q-64 -57 -200 -505q-17 -56 -17 -62
q0 -46 38 -46q35 0 119 146l23 -12q-43 -117 -115 -246q-55 -98 -154 -98q-141 0 -141 143q0 83 72 263.5t72 268.5q0 31 -11 45q-7 2 -16 7q-7 -1 -12 -5q-52 -43 -116 -244q-76 -237 -131 -325q-101 -162 -261 -162z" />
    <glyph glyph-name="afii10078" unicode="&#x43c;" horiz-adv-x="1188" 
d="M590 -14q-74 0 -74 75q0 76 73 302t73 292q0 31 -11 45q-7 2 -16 7q-7 -1 -12 -5q-52 -43 -116 -244q-76 -237 -131 -325q-101 -162 -261 -162q-191 0 -191 156q0 85 50 136.5t135 51.5q61 0 102 -43q-22 0 -44 -20.5t-22 -42.5q0 -39 37 -39q68 0 117 176
q70 255 111 328q99 176 288 176q63 0 115 -43q90 37 242 37q54 0 155 12q138 16 158 18l-4 -24q-57 -14 -96 -47q-46 -39 -194 -485q-23 -69 -23 -82q0 -46 39 -46q34 0 118 146l23 -12q-43 -117 -115 -246q-55 -98 -153 -98q-142 0 -142 143q0 83 72 263.5t72 268.5
q0 33 -11 45q-7 2 -16 7q-39 -4 -133 -271q-54 -161 -107 -323q-45 -127 -108 -127z" />
    <glyph glyph-name="afii10079" unicode="&#x43d;" horiz-adv-x="973" 
d="M403 41q0 -29 11 -59q-74 20 -138 20q-40 0 -155 -18q57 79 163 335q103 247 103 287q0 53 -47 53q-41 0 -98 -127l-17 9q43 111 108 203q89 126 171 126q121 0 121 -110q0 -100 -142 -438q3 9 62.5 90t72.5 96q51 59 101 59q31 0 57 -18q74 174 74 262q0 29 -10 59
q73 -20 137 -20q41 0 156 18q-57 -79 -164 -335q-103 -246 -103 -287q0 -53 47 -53q41 0 99 126l16 -8q-44 -114 -106 -203q-89 -126 -172 -126q-121 0 -121 110q0 41 25.5 117t25.5 115q0 26 -20.5 44.5t-47.5 18.5t-75 -37q-62 -46 -100 -139q-34 -85 -34 -170z" />
    <glyph glyph-name="afii10080" unicode="&#x43e;" horiz-adv-x="901" 
d="M657 854q-241 -192 -241 -424q0 -88 43 -151q49 -72 133 -72q106 0 168 94q55 82 55 193q0 147 -141 147q-52 0 -103 -40.5t-67 -90.5l-37 -6q57 203 244 358q27 8 30 8q104 0 169 -114q55 -97 55 -209q0 -207 -114 -379q-129 -195 -325 -195q-136 0 -225 101
q-86 97 -86 235q0 289 231 455q114 82 211 90z" />
    <glyph glyph-name="afii10081" unicode="&#x43f;" horiz-adv-x="973" 
d="M121 -16q56 78 163 335q103 246 103 287q0 53 -47 53q-41 0 -98 -127l-17 9q43 111 107 203q90 126 172 126q121 0 121 -110q0 -29 -17 -139q5 10 23 36q88 124 105 141q69 72 153 72q133 0 133 -133q0 -61 -77 -246t-77 -235q0 -41 35 -41q51 0 88 115l25 -8l-90 -195
q-66 -143 -181 -143q-114 0 -114 110q0 65 83 272t83 248q0 26 -21 45t-47 19q-88 0 -212 -278q-114 -255 -114 -359q0 -29 11 -59q-74 20 -138 20q-40 0 -155 -18z" />
    <glyph glyph-name="afii10082" unicode="&#x440;" horiz-adv-x="918" 
d="M551 -20q-107 0 -176 81l100 267q37 -70 49 -86q35 -45 82 -45q104 0 171 100q59 88 59 197q0 170 -138 170q-172 0 -332 -425q-123 -327 -153 -591q-4 -34 -10 -142q-146 19 -185 19q-67 0 -133 -17q175 260 344 742q129 367 129 459q0 102 -100 129q117 0 344 47
q-33 -97 -96 -289l113 177q78 97 174 97q118 0 173 -116q42 -88 42 -222q0 -189 -132 -364q-142 -188 -325 -188z" />
    <glyph glyph-name="afii10083" unicode="&#x441;" horiz-adv-x="852" 
d="M635 465q23 6 41 32t18 50q0 45 -34 73q-31 25 -78 25q-89 0 -153 -65t-64 -154q0 -85 79 -145q72 -56 160 -56q90 0 167 56q74 54 110 139h26q-74 -443 -405 -443q-132 0 -210 104q-71 94 -71 230q0 203 115 371q128 188 321 188q100 0 172 -60q76 -64 76 -161
q0 -95 -57 -150t-152 -55q-30 0 -61 21z" />
    <glyph glyph-name="afii10084" unicode="&#x442;" horiz-adv-x="1337" 
d="M115 -18q78 88 140 249q45 134 91 269q25 72 25 94q0 45 -47 45q-41 0 -99 -113l-22 6q134 330 282 330q121 0 121 -139q0 -76 -31 -117q117 148 130 161q90 93 174 93q112 0 112 -119q0 -77 -20 -127q178 250 289 250q126 0 126 -108q0 -73 -57 -240q-40 -110 -80 -219
q-12 -35 -12 -41q0 -45 45 -45q43 0 82 119l22 -6q-101 -340 -270 -340q-47 0 -84 30t-37 76q0 34 65 223q42 118 83 236q4 12 4 31q0 63 -53 63q-74 0 -133 -106q-25 -44 -70 -172l-56 -144q-36 -101 -36 -153q0 -35 14 -78q-65 8 -129 8q-78 0 -156 -21q51 68 119 251
q42 122 84 245q31 86 31 113q0 57 -51 57q-95 0 -203 -254q-98 -228 -98 -342q0 -33 12 -65q-86 12 -172 12q-37 0 -135 -12z" />
    <glyph glyph-name="afii10085" unicode="&#x443;" horiz-adv-x="911" 
d="M381 -281q-33 31 -82 31q-76 0 -76 -67q0 -80 101 -80q61 0 116 73q59 79 207 576q-80 -129 -124 -179q-90 -102 -179 -102q-50 0 -87.5 36.5t-37.5 86.5q0 85 68.5 261t68.5 235q0 39 -39 39q-26 0 -75 -117h-29q127 367 268 367q113 0 113 -119q0 -75 -105 -406
q-18 -57 -18 -73q0 -56 51 -56q90 0 185 234q84 205 84 313q0 55 -37 109q88 -29 141 -29q98 0 205 35q-53 -41 -92 -133q-15 -35 -52 -156q-123 -398 -229 -719q-127 -383 -446 -383q-108 0 -183 45q-90 53 -90 154q0 81 57 134.5t138 53.5q65 0 119 -35q63 -39 63 -100
q0 -14 -4 -29z" />
    <glyph glyph-name="afii10086" unicode="&#x444;" horiz-adv-x="1491" 
d="M1126 209q108 0 173 91q57 81 57 194q0 157 -137 157q-79 0 -132 -47q-112 -100 -229 -446q-101 -301 -125 -510q-4 -33 -10 -142q-145 19 -184 19q-68 0 -133 -17q112 169 249 488q-57 -23 -129 -23q-136 0 -225 101q-86 97 -86 235q0 288 231 455q113 82 211 90
q-241 -192 -241 -424q0 -88 43 -151q49 -72 133 -72q106 0 168 94q55 82 55 193q0 147 -141 147q-51 0 -103 -40.5t-67 -90.5l-37 -6q33 119 92 200q47 66 152 158q27 8 30 8q95 0 156 -92q80 313 80 389q0 70 -57 103q68 0 241 65q123 50 246 99l2 -25q-156 -82 -205 -229
q-59 -160 -127 -398q122 88 228 88q233 0 233 -309q0 -273 -171 -469q-97 -112 -285 -112q-152 0 -208 112l101 266q18 -48 60 -94q49 -55 91 -55z" />
    <glyph glyph-name="afii10087" unicode="&#x445;" horiz-adv-x="975" 
d="M358 272q-23 0 -44 -20.5t-21 -42.5q0 -47 47 -47q52 0 113 96q46 71 71 145h-8q-84 0 -129 -57q36 99 40 106q33 62 87 62q42 0 55 -4q17 43 17 78q0 82 -78 82q-66 0 -113 -44q-15 -15 -78 -98l-32 2q69 110 138 219q98 125 208 125q55 0 92 -34t37 -88q0 -27 -8 -64
q140 197 249 197q60 0 103 -41t43 -101q0 -75 -70 -126q-64 -46 -141 -46q-47 0 -86 25q65 29 65 66q0 36 -47 36q-77 0 -153 -188q20 -8 67 -8t97 22q-41 -80 -103 -129h-100q-21 -39 -21 -86q0 -94 93 -94q79 0 144.5 49t80.5 125h31q-54 -147 -137 -257
q-113 -150 -230 -150q-154 0 -156 229q-18 -45 -63 -108q-52 -71 -91 -96q-47 -30 -128 -30q-58 0 -94 47q-33 43 -33 103q0 84 50 136t134 52q61 0 102 -43z" />
    <glyph glyph-name="afii10088" unicode="&#x446;" horiz-adv-x="1040" 
d="M991 162q-63 -103 -79 -120q-49 -54 -126 -54q-114 0 -114 141q0 78 14 121q-100 -154 -186 -234q-42 -39 -117 -39q-51 0 -87 33.5t-36 83.5q0 70 111 389q30 86 30 109q0 45 -39 45q-36 0 -92 -117h-26q9 40 35 96q53 117 88 161q65 85 153 85q121 0 121 -125
q0 -76 -69.5 -249.5t-69.5 -229.5q0 -63 55 -63q134 0 231 380q48 189 48 216q0 40 -19 79q70 -20 146 -20q110 0 153 27q-60 -106 -112 -267l-82 -278q-23 -75 -23 -94q0 -39 29 -39q45 0 98 123l33 -3q-2 -20 -17 -63q-14 -38 -14 -63q0 -33 46 -83t46 -110
q0 -122 -139 -215l-29 37q58 25 58 92q0 24 -24.5 64t-24.5 79q0 49 30 105z" />
    <glyph glyph-name="afii10089" unicode="&#x447;" horiz-adv-x="958" 
d="M745 584q-91 -166 -213 -262q-49 -39 -116 -39q-51 0 -87 32.5t-36 83.5q0 38 21.5 102t21.5 91q0 45 -39 45q-37 0 -92 -117h-27q9 40 35 96q53 117 88 162q66 84 154 84q120 0 120 -125q0 -67 -40 -174q0 -63 55 -63q52 0 112 74q53 66 68 124l21 84l-3 3q-3 29 -20 87
q70 -20 145 -20q111 0 154 27q-58 -97 -113 -270q-41 -137 -82 -275q-22 -71 -22 -94q0 -39 29 -39q45 0 96 123l33 -2q-53 -118 -65 -143q-48 -100 -77 -132q-52 -57 -129 -57q-114 0 -114 141q0 34 52 220q45 162 70 233z" />
    <glyph glyph-name="afii10090" unicode="&#x448;" horiz-adv-x="1303" 
d="M1425 858q-78 -87 -140 -249q-45 -135 -91 -269q-25 -71 -25 -94q0 -45 48 -45q40 0 98 112l22 -6q-136 -330 -282 -330q-121 0 -121 140q0 76 31 116q-121 -152 -129 -160q-90 -93 -174 -93q-113 0 -113 118q0 78 20 127q-178 -250 -288 -250q-127 0 -127 109
q0 73 57 240q40 110 80 219q12 35 12 41q0 45 -45 45q-43 0 -82 -119l-22 6q101 340 270 340q46 0 83 -29q38 -32 38 -77q0 -55 -76 -253t-76 -237q0 -63 53 -63q75 0 134 106q22 41 69 172q28 72 55 144q37 101 37 153q0 35 -14 78q66 -8 129 -8q78 0 156 20
q-51 -67 -119 -251l-84 -244q-31 -86 -31 -113q0 -57 51 -57q96 0 204 254q97 226 97 342q0 32 -12 65q86 -12 172 -12q37 0 135 12z" />
    <glyph glyph-name="afii10091" unicode="&#x449;" horiz-adv-x="1337" 
d="M1192 227q0 -39 29 -39q45 0 98 123l33 -2q-3 -18 -18 -63q-13 -39 -13 -64q0 -33 46 -83t46 -109q0 -122 -139 -215l-29 37q58 24 58 92q0 23 -25 64t-25 79q0 49 31 105q-63 -103 -79 -120q-50 -55 -126 -55q-121 0 -121 140q0 76 31 116q-122 -153 -129 -160
q-90 -93 -174 -93q-113 0 -113 118q0 78 21 127q-178 -250 -289 -250q-127 0 -127 109q0 69 59 243l78 216q13 38 13 41q0 45 -45 45q-43 0 -82 -119l-23 6q101 340 271 340q47 0 83.5 -30t36.5 -76q0 -55 -75.5 -252.5t-75.5 -237.5q0 -63 53 -63q74 0 133 106
q26 47 70 172l54 142q38 107 38 155q0 35 -14 78q65 -8 129 -8q77 0 155 20q-52 -67 -119 -252q-42 -122 -83 -243q-31 -87 -31 -113q0 -57 51 -57q95 0 204 254q97 227 97 342q0 32 -12 65q86 -12 172 -12q37 0 135 12q-78 -87 -140 -249q-45 -135 -91 -269
q-27 -77 -27 -113z" />
    <glyph glyph-name="afii10092" unicode="&#x44a;" horiz-adv-x="803" 
d="M272 190q0 82 53 218q43 107 87 213q-39 6 -70 6q-65 0 -116 -34q-32 -21 -89 -83l168 324q49 20 107 20q39 0 109.5 -18.5t101.5 -18.5q49 0 84 37l-60 -105q-32 -57 -108 -243q-82 -201 -82 -236q0 -88 59 -88q69 0 136 68.5t67 138.5q0 86 -43 86q-79 0 -152 -67
q21 44 81.5 84t107.5 40q83 0 135 -43q57 -46 57 -127q0 -64 -37 -137q-130 -256 -432 -256q-85 0 -128 72q-36 60 -36 149z" />
    <glyph glyph-name="afii10093" unicode="&#x44b;" horiz-adv-x="1286" 
d="M1108 811q0 29 -10 59q73 -20 137 -20q41 0 156 18q-56 -77 -164 -336q-103 -248 -103 -286q0 -53 47 -53q41 0 99 126l16 -8q-44 -114 -106 -203q-89 -126 -172 -126q-121 0 -121 110q0 55 28 134q25 65 49 129q43 116 86 231q58 163 58 225zM428 750q0 80 -76 116
q86 -14 235 -14q117 0 111 0q-22 -35 -66 -106q-44 -74 -115 -245q-81 -193 -81 -249q0 -64 43 -64q112 0 183 115q6 10 30 82q0 90 -65 90q-54 0 -129 -61q22 43 84 79.5t108 36.5q77 0 133 -50t56 -126q0 -56 -45 -139q-62 -115 -152 -170q-118 -72 -223 -72
q-221 0 -221 187q0 126 95 333t95 257z" />
    <glyph glyph-name="afii10094" unicode="&#x44c;" horiz-adv-x="836" 
d="M428 750q0 80 -76 116q88 -14 156 -14h106q16 0 45 5q34 6 46 7q-36 -57 -104 -175q-40 -76 -97 -218q-68 -170 -68 -219q0 -64 43 -64q112 0 183 115q6 10 30 82q0 90 -65 90q-54 0 -129 -61q22 43 84 79.5t108 36.5q77 0 133 -50t56 -126q0 -56 -45 -139
q-62 -115 -152 -170q-118 -72 -223 -72q-221 0 -221 187q0 126 95 332.5t95 257.5z" />
    <glyph glyph-name="afii10095" unicode="&#x44d;" horiz-adv-x="836" 
d="M459 383q-22 -6 -41 -32.5t-19 -49.5q0 -98 113 -98q89 0 153 65t64 154q0 85 -79 145q-74 56 -161 56q-90 0 -167 -56q-73 -54 -109 -139h-27q78 442 406 442q131 0 209 -104q71 -94 71 -229q0 -204 -114 -372q-128 -188 -322 -188q-99 0 -171 61q-77 64 -77 161
q0 95 56.5 149.5t152.5 54.5q31 0 62 -20zM618 242q0 138 -47 147q-10 -6 -34 -76l-19 9l78 231q70 -50 70 -131q0 -109 -48 -180z" />
    <glyph glyph-name="afii10096" unicode="&#x44e;" horiz-adv-x="1278" 
d="M651 535q61 112 160 194q113 92 227 102q-241 -192 -241 -423q0 -89 43 -152q48 -72 133 -72q105 0 168 94q55 83 55 193q0 147 -141 147q-52 0 -104 -40.5t-66 -90.5l-37 -6q57 204 244 359q26 8 30 8q103 0 169 -115q55 -97 55 -209q0 -207 -114 -379
q-129 -194 -325 -194q-137 0 -226 101q-85 96 -85 235q0 56 14 102q-26 0 -74 -38q-61 -48 -98 -140q-35 -85 -35 -170q0 -29 11 -59q-74 20 -138 20q-40 0 -155 -18q56 78 163 335q103 247 103 287q0 53 -47 53q-41 0 -98 -127l-17 9q43 111 108 203q89 126 171 126
q121 0 121 -110q0 -100 -142 -438q12 31 76.5 113.5t91.5 99.5z" />
    <glyph glyph-name="afii10097" unicode="&#x44f;" horiz-adv-x="926" 
d="M250 -8q-113 0 -113 123q0 35 14 118t25 113l37 14q-23 -67 -23 -104q0 -45 37 -45q17 0 76 47t125 47q35 0 104.5 -1t104.5 -1l-12 -24q-30 -3 -89 -17q-38 -15 -74 -88q-45 -95 -69 -121q-53 -61 -143 -61zM707 608q-9 60 -70 60q-75 0 -126 -64q-48 -59 -48 -135
q0 -30 13 -57q17 -35 44 -35q79 0 164 82q-22 -55 -78 -95t-114 -40q-102 0 -163 63t-61 166q0 151 189 245q155 76 325 76q164 0 260 -73zM713 565l352 197q-31 -34 -78 -109l-143 -358q-10 -25 -10 -49q0 -53 47 -53q41 0 98 126l16 -8q-44 -114 -106 -203
q-89 -126 -172 -126q-121 0 -121 110q0 48 60.5 195.5t60.5 230.5q0 25 -4 47z" />
    <glyph glyph-name="afii10071" unicode="&#x451;" horiz-adv-x="852" 
d="M416 475q55 -82 135 -82q58 0 106 46t48 104q0 56 -43 92q-40 33 -97 33q-85 0 -148 -90q-57 -81 -57 -170q0 -96 74 -162q71 -64 168 -64q105 0 209.5 80.5t138.5 181.5l27 -6q-19 -61 -105 -209q-143 -247 -352 -247q-136 0 -224 102q-83 97 -83 235q0 151 82 285
q79 130 213 207q98 57 178 57q244 0 244 -233q0 -124 -99 -220t-223 -96q-69 0 -126 43q-62 47 -66 113zM1028 1083q0 -102 -121 -102q-127 0 -127 102q0 99 127 99q121 0 121 -99zM686 1083q0 -102 -127 -102q-121 0 -121 102q0 99 121 99q127 0 127 -99z" />
    <glyph glyph-name="afii10101" unicode="&#x454;" horiz-adv-x="852" 
d="M362 281q42 210 226 254l-78 -220h-21q9 28 19 68l-4 6h-4q-49 0 -138 -108zM322 352q0 -68 43.5 -108.5t111.5 -40.5q57 0 101 30q49 34 49 89q0 51 -35 61q39 20 70 20q149 0 149 -122q0 -123 -112 -216q-107 -88 -232 -88q-138 0 -211 103q-63 90 -63 235
q0 207 122 373q134 182 334 182q111 0 180.5 -70.5t69.5 -181.5q0 -94 -18 -190h-27q-5 87 -61.5 141t-143.5 54q-61 0 -102 -8q-95 -17 -160 -92.5t-65 -170.5z" />
    <glyph glyph-name="afii10103" unicode="&#x456;" horiz-adv-x="565" 
d="M506 1098q0 52 37 94.5t88 42.5q50 0 81 -32t31 -83q0 -133 -135 -133q-102 0 -102 111zM391 784q0 59 -6 72q55 -4 111 -4q106 0 184 12q-12 -28 -45 -78q-17 -25 -47 -110l-117 -328q-22 -62 -22 -100q0 -51 36 -51q25 0 68 54q26 38 53 75l15 -4q-41 -111 -110 -214
q-94 -139 -173 -139q-55 0 -92 39t-37 94q0 67 29 158l137 430q16 50 16 94z" />
    <glyph glyph-name="afii10104" unicode="&#x457;" horiz-adv-x="647" 
d="M864 1083q0 -102 -121 -102q-127 0 -127 102q0 99 127 99q121 0 121 -99zM522 1083q0 -102 -127 -102q-121 0 -121 102q0 99 121 99q127 0 127 -99zM391 784q0 59 -6 72q55 -4 111 -4q106 0 184 12q-12 -28 -45 -78q-17 -25 -47 -110l-117 -328q-22 -62 -22 -100
q0 -51 36 -51q25 0 68 54q26 38 53 75l15 -4q-41 -111 -110 -214q-94 -139 -173 -139q-55 0 -92 39t-37 94q0 67 29 158l137 430q16 50 16 94z" />
    <glyph glyph-name="afii10106" unicode="&#x459;" horiz-adv-x="768" 
d="M477 297q-82 -4 -88 -6q-45 -11 -45 -60q0 -73 133 -73q56 0 98.5 37.5t42.5 93.5q0 53 -104 128q-68 43 -136.5 87.5t-68.5 116.5q0 127 92 192q81 57 213 57q106 0 181 -39q94 -49 94 -145q0 -64 -44.5 -103.5t-109.5 -39.5t-172 71q15 -4 35 -4q78 0 78 47
q0 50 -86 50q-96 0 -96 -86q0 -35 98 -101q66 -43 133 -86q68 -51 68 -166q0 -143 -103 -220q-92 -68 -239 -68q-322 0 -322 227q0 72 49 121t121 49q111 0 178 -80zM907 1260q0 -11 -38 -49l-50 -48l-143 -153q-23 -25 -64 -25q-36 0 -69 35l-228 240q0 18 27 18
q49 0 143 -48q91 -45 127 -85q176 133 269 133q26 0 26 -18z" />
    <glyph glyph-name="afii10110" unicode="&#x45e;" horiz-adv-x="911" 
d="M381 -281q-33 31 -82 31q-76 0 -76 -67q0 -80 101 -80q61 0 116 73q59 79 207 576q-80 -129 -124 -179q-90 -102 -179 -102q-50 0 -87.5 36.5t-37.5 86.5q0 85 68.5 261t68.5 235q0 39 -39 39q-26 0 -75 -117h-29q127 367 268 367q113 0 113 -119q0 -75 -105 -406
q-18 -57 -18 -73q0 -56 51 -56q90 0 185 234q84 205 84 313q0 55 -37 109q88 -29 141 -29q98 0 205 35q-53 -41 -92 -133q-15 -35 -52 -156q-123 -398 -229 -719q-127 -383 -446 -383q-108 0 -183 45q-90 53 -90 154q0 81 57 134.5t138 53.5q65 0 119 -35q63 -39 63 -100
q0 -14 -4 -29zM745 977q111 0 111 43q0 19 -37 51t-37 59q0 54 78 54q48 0 90.5 -36t42.5 -83q0 -29 -20 -57q-55 -76 -228 -76q-251 0 -251 131q0 49 41.5 85t91.5 36q75 0 75 -54q0 -27 -35.5 -59t-35.5 -51q0 -43 114 -43z" />
    <glyph glyph-name="afii10193" unicode="&#x45f;" horiz-adv-x="1106" 
d="M199 313q133 0 133 -155q0 -9 -2 -13h-21q0 64 -41 64q-18 0 -45 -56q-35 -74 -65 -105q-54 -56 -138 -56q-112 0 -112 123q0 130 39 231l37 14q-23 -61 -23 -96q0 -45 37 -45q16 0 75.5 47t125.5 47zM385 872q39 0 88 -34q79 -53 70 -166l-6 -76q63 191 96 289
q115 -23 178 -23q23 0 69.5 4t69.5 4q-113 -28 -155 -129l-170 -413q-76 -189 -76 -250q0 -43 31 -74q-31 -8 -54 -8q-18 0 -53 6t-53 6q-19 0 -57.5 -6t-57.5 -6q-22 0 -47 8q49 33 74 74q3 5 13 34q50 112 138 339q11 33 11 75q0 54 -27 91q-30 40 -82 40q-65 0 -111 -63
q-41 -58 -41 -125q0 -30 13 -58q17 -34 45 -34q79 0 164 82q-23 -55 -79 -95t-114 -40q-95 0 -160 61.5t-65 155.5q0 50 18 98q88 233 330 233z" />
    <glyph glyph-name="afii10050" unicode="&#x490;" horiz-adv-x="1325" 
d="M756 848l190 549q154 84 338 84q67 0 207.5 -33t194.5 -33q30 0 59 38l39 63h28q-57 -135 -114 -269q-87 -170 -197 -170q-50 0 -164 23.5t-182 23.5q-287 0 -369 -278zM1036 502q23 63 55 186q35 138 35 184q0 43 -53 86q137 115 238 115q28 0 59 -6q-79 -48 -110 -193
l-58 -270q-31 -146 -59 -223q51 -117 51 -236q0 -106 -18 -180h-31q16 135 16 164q0 119 -51 193q-29 -53 -80 -113q-104 -120 -208 -174q-112 -58 -263 -58q-193 0 -339 99q-165 112 -165 297q0 179 135 282q123 93 308 93q136 0 290 -74q144 -69 248 -172zM647 600
q-95 0 -165 -46q-81 -53 -81 -144q0 -183 244 -183q111 0 216 63q113 67 147 167q-136 143 -361 143z" />
    <glyph glyph-name="afii10098" unicode="&#x491;" horiz-adv-x="680" 
d="M926 788q0 -42 -40 -81q-58 -57 -227 -66q-65 -4 -122 -158q-105 -284 -105 -385q0 -59 37 -112q-68 18 -141 18q-52 0 -222 -22q87 86 162 272q62 152 94 309v4q0 51 -43 51q-39 0 -72 -53q-30 -48 -30 -90l-37 4q23 67 53 129q74 152 83 165q63 95 147 95q17 0 54 -7
t56 -7q140 0 140 68q0 41 -76 94h14q107 0 187 -59q88 -66 88 -169z" />
    <glyph glyph-name="endash" unicode="&#x2013;" horiz-adv-x="1067" 
d="M158 502v215h947v-215h-947z" />
    <glyph glyph-name="emdash" unicode="&#x2014;" horiz-adv-x="1067" 
d="M158 502v215h1147v-215h-1147z" />
    <glyph glyph-name="quoteleft" unicode="&#x2018;" horiz-adv-x="446" 
d="M707 1466l26 -32q-61 -31 -121 -99q-69 -76 -69 -133q0 -21 35 -35q49 -20 65 -35q35 -33 35 -100q0 -57 -35.5 -97t-91.5 -40q-135 0 -135 147q0 117 94 245q85 116 197 179z" />
    <glyph glyph-name="quoteright" unicode="&#x2019;" horiz-adv-x="446" 
d="M444 918q189 126 189 231q0 25 -35 37q-49 16 -64 30q-34 31 -34 105q0 55 33.5 95t87.5 40q139 0 139 -147q0 -119 -93 -246q-87 -118 -200 -176z" />
    <glyph glyph-name="quotesinglbase" unicode="&#x201a;" horiz-adv-x="455" 
d="M84 -305l39 96q114 18 194 209h-108l90 217h217q-112 -269 -148 -324q-103 -159 -284 -198z" />
    <glyph glyph-name="quotedblleft" unicode="&#x201c;" horiz-adv-x="788" 
d="M1067 1425q-188 -127 -188 -231q0 -24 34 -37q50 -18 64 -32q35 -32 35 -103q0 -56 -33 -94q-35 -41 -90 -41q-137 0 -137 147q0 120 92 246q86 117 200 176zM760 1425q-189 -127 -189 -231q0 -24 35 -37q49 -18 64 -32q35 -32 35 -103q0 -56 -33 -94q-35 -41 -90 -41
q-138 0 -138 147q0 120 93 246q86 117 200 176z" />
    <glyph glyph-name="quotedblright" unicode="&#x201d;" horiz-adv-x="788" 
d="M444 918q189 126 189 231q0 25 -35 37q-49 16 -64 30q-34 31 -34 105q0 55 33.5 95t87.5 40q139 0 139 -147q0 -119 -93 -246q-87 -118 -200 -176zM752 918q188 126 188 231q0 25 -35 37q-49 17 -64 30q-34 32 -34 105q0 55 33.5 95t87.5 40q139 0 139 -147
q0 -119 -93 -246q-87 -118 -200 -176z" />
    <glyph glyph-name="quotedblbase" unicode="&#x201e;" horiz-adv-x="682" 
d="M354 -305l37 96q124 23 189 209h-107l86 217h215q-113 -279 -141 -324q-100 -159 -279 -198zM14 -305l39 98q117 14 191 207h-111l86 217h217q-102 -263 -141 -325q-102 -160 -281 -197z" />
    <glyph glyph-name="dagger" unicode="&#x2020;" horiz-adv-x="1139" 
d="M1538 881h-385l-483 -1207h-195l483 1207h-385l64 157h385l172 432h195l-172 -432h385z" />
    <glyph glyph-name="daggerdbl" unicode="&#x2021;" horiz-adv-x="1139" 
d="M1221 88h-385l-170 -414h-195l170 414h-385l66 158h385l268 651h-385l63 158h385l172 415h195l-172 -415h385l-64 -158h-385l-268 -651h385z" />
    <glyph glyph-name="bullet" unicode="&#x2022;" horiz-adv-x="528" 
d="M670 848q0 -75 -109 -159q-104 -81 -182 -81q-41 0 -74 26t-33 66q0 90 95 175q92 83 184 83q50 0 84.5 -30.5t34.5 -79.5z" />
    <glyph glyph-name="ellipsis" unicode="&#x2026;" horiz-adv-x="1923" 
d="M1800 215q0 -62 -64 -138q-67 -79 -128 -79q-60 0 -60 49q0 63 71 138t134 75q47 0 47 -45zM1159 215q0 -62 -64 -138q-67 -79 -128 -79q-60 0 -60 49q0 63 71 138t134 75q47 0 47 -45zM518 215q0 -62 -64 -138q-67 -79 -128 -79q-60 0 -60 49q0 63 71.5 138t133.5 75
q47 0 47 -45z" />
    <glyph glyph-name="perthousand" unicode="&#x2030;" horiz-adv-x="2423" 
d="M358 805q0 191 119 407q136 246 309 246q118 0 181 -83q55 -75 55 -197q0 -201 -115 -406q-133 -237 -317 -237q-115 0 -177 80q-55 72 -55 190zM1149 240q0 194 120 410q136 247 312 247q110 0 174 -76q60 -72 60 -184q0 -211 -109 -418q-129 -244 -320 -244
q-115 0 -178 76q-59 71 -59 189zM598 0l860 1436h105l-869 -1436h-96zM1448 193q106 0 177 105q63 94 63 206q0 77 -43 123.5t-119 46.5q-105 0 -181 -102q-69 -94 -69 -203q0 -78 47 -127t125 -49zM655 754q100 0 173 94q67 87 67 190q0 195 -162 195q-109 0 -183 -100
q-67 -91 -67 -205q0 -76 48 -125t124 -49zM1825 240q0 194 120 410q136 247 312 247q111 0 174 -76q59 -71 59 -184q0 -212 -109 -418q-128 -244 -319 -244q-115 0 -178 76q-59 71 -59 189zM2124 193q107 0 177 105q62 93 62 206q0 76 -43 123t-118 47q-106 0 -181 -102
q-69 -93 -69 -203q0 -78 47 -127t125 -49z" />
    <glyph glyph-name="guilsinglleft" unicode="&#x2039;" horiz-adv-x="682" 
d="M508 219l-215 256l78 187l428 251l-74 -180l-285 -166l144 -166z" />
    <glyph glyph-name="guilsinglright" unicode="&#x203a;" horiz-adv-x="682" 
d="M610 473l-428 -254l74 182l285 166l-148 166l74 182l219 -253z" />
    <glyph glyph-name="trademark" unicode="&#x2122;" horiz-adv-x="1849" 
d="M608 1028l94 275q80 43 170 43q33 0 99.5 -16.5t99.5 -16.5q21 0 51 49h15l-58 -134q-45 -85 -100 -85q-28 0 -85.5 12t-86.5 12q-143 0 -184 -139h-15zM748 856q7 15 26 91.5t19 92.5q0 23 -27 43q68 58 119 58q14 0 30 -2q-40 -25 -70 -152l-44 -192q26 -58 26 -117
q0 -53 -10 -90h-14q8 67 8 82q0 59 -27 96q-39 -75 -115 -123.5t-159 -48.5q-100 0 -171 47q-81 54 -81 150q0 88 66 140q61 48 153 48q148 0 271 -123zM553 905q-47 0 -82 -24q-41 -28 -41 -72q0 -90 123 -90q58 0 109.5 31t70.5 84q-67 71 -180 71zM1311 1022l104 274
q88 45 164 45q137 0 137 -131q0 -24 -6 -49q60 109 81 131q51 56 138 56q17 0 51.5 -3.5t51.5 -3.5q12 0 32 8q26 9 33 11v-2l-10 -23v-2q-64 -151 -105 -151q-13 0 -39.5 2t-39.5 2q-121 0 -170 -49q-40 -39 -74 -166l-82 -307q-5 -18 55 -54h-221q76 19 94 78l90 295
q19 62 19 107q0 79 -80 79q-119 0 -205 -147h-18zM1933 1159q-51 -34 -75 -101q-16 -64 -33 -128q-10 -35 -10 -58q0 -49 57 -49q53 0 108 129h15l-119 -346h-18l14 49q-53 -41 -82 -41q-86 0 -86 70q0 28 12 70l90 317q19 66 127 88zM1313 823q-31 97 -135 97
q-53 0 -91 -28q-43 -30 -43 -81q0 -48 37 -78.5t86 -30.5q102 0 158 69q32 38 80 161q27 69 27 96t-25 33q13 26 44.5 50t59.5 24q11 0 23 -5q-25 -20 -63 -167q-43 -165 -96 -242q-87 -123 -242 -123q-103 0 -172 49q-78 55 -78 154q0 86 64 141q61 51 149 51q80 0 142 -45
q67 -48 75 -125z" />
    <glyph glyph-name="NULL" horiz-adv-x="0" 
 />
  </font>
</defs>
</svg>
