<svg width="79" height="79" viewBox="0 0 79 79" fill="none" xmlns="http://www.w3.org/2000/svg">
<g clip-path="url(#clip0)">
<path d="M68.4427 0H10.8573C5.55674 0 1.25977 4.40439 1.25977 9.83747V68.8623C1.25977 74.2954 5.55674 78.6998 10.8573 78.6998H68.4427C73.7433 78.6998 78.0402 74.2954 78.0402 68.8623V9.83747C78.0402 4.40439 73.7433 0 68.4427 0Z" fill="url(#paint0_linear)"/>
<path d="M68.4427 0H10.8573C5.55674 0 1.25977 4.40439 1.25977 9.83747V68.8623C1.25977 74.2954 5.55674 78.6998 10.8573 78.6998H68.4427C73.7433 78.6998 78.0402 74.2954 78.0402 68.8623V9.83747C78.0402 4.40439 73.7433 0 68.4427 0Z" fill="url(#paint1_radial)"/>
<path d="M50.4471 9.8374H28.8526C18.9155 9.8374 10.8572 18.0972 10.8572 28.2827V50.417C10.8572 60.6025 18.9155 68.8623 28.8526 68.8623H50.4471C60.3842 68.8623 68.4425 60.6025 68.4425 50.417V28.2827C68.4425 18.0972 60.3842 9.8374 50.4471 9.8374ZM63.0439 50.417C63.0439 57.5368 57.3932 63.3287 50.4471 63.3287H28.8526C21.9065 63.3287 16.2558 57.5368 16.2558 50.417V28.2827C16.2558 21.1629 21.9065 15.371 28.8526 15.371H50.4471C57.3932 15.371 63.0439 21.1629 63.0439 28.2827V50.417Z" fill="white"/>
<path d="M39.6498 24.5933C31.6993 24.5933 25.2534 31.2003 25.2534 39.3495C25.2534 47.4986 31.6993 54.1057 39.6498 54.1057C47.6002 54.1057 54.0461 47.4986 54.0461 39.3495C54.0461 31.2003 47.6002 24.5933 39.6498 24.5933ZM39.6498 48.5721C34.6901 48.5721 30.652 44.4331 30.652 39.3495C30.652 34.2623 34.6901 30.1268 39.6498 30.1268C44.6094 30.1268 48.6475 34.2623 48.6475 39.3495C48.6475 44.4331 44.6094 48.5721 39.6498 48.5721Z" fill="white"/>
<path d="M55.1259 25.4531C56.1853 25.4531 57.0442 24.5727 57.0442 23.4868C57.0442 22.401 56.1853 21.5205 55.1259 21.5205C54.0665 21.5205 53.2075 22.401 53.2075 23.4868C53.2075 24.5727 54.0665 25.4531 55.1259 25.4531Z" fill="white"/>
</g>
<defs>
<linearGradient id="paint0_linear" x1="19" y1="79" x2="60" y2="-1.56431e-06" gradientUnits="userSpaceOnUse">
<stop offset="0.00711418" stop-color="#FAC35F"/>
<stop offset="0.494679" stop-color="#E44364"/>
<stop offset="1" stop-color="#B53AA6"/>
</linearGradient>
<radialGradient id="paint1_radial" cx="0" cy="0" r="1" gradientUnits="userSpaceOnUse" gradientTransform="translate(1) rotate(45.3) scale(67.5296 65.8827)">
<stop stop-color="#8446B6"/>
<stop offset="1" stop-color="#8446B6" stop-opacity="0"/>
</radialGradient>
<clipPath id="clip0">
<rect x="0.300049" width="78.7" height="78.6998" fill="white"/>
</clipPath>
</defs>
</svg>
