<svg width="79" height="79" viewBox="0 0 79 79" fill="none" xmlns="http://www.w3.org/2000/svg">
<g clip-path="url(#clip0)">
<path d="M69.1625 0H10.1375C4.70445 0 0.300049 4.40439 0.300049 9.83747V68.8623C0.300049 74.2954 4.70445 78.6998 10.1375 78.6998H69.1625C74.5956 78.6998 79 74.2954 79 68.8623V9.83747C79 4.40439 74.5956 0 69.1625 0Z" fill="#29C93D"/>
<g clip-path="url(#clip1)">
<rect width="60.7474" height="56.0744" transform="matrix(0.965926 0.258819 -0.25882 0.965926 18.7944 3.18115)" fill="white"/>
<path d="M51.2488 -5.05476L51.2268 -5.06065C26.9619 -11.5624 1.94105 2.88798 -4.5622 27.1584C-7.14169 36.7851 -6.42993 46.5391 -3.09571 55.1975L-12.9609 70.0769L5.40362 69.2019C11.1272 75.6763 18.7148 80.5631 27.665 82.9613C51.9299 89.463 76.9522 75.0071 83.454 50.7422C89.9557 26.4773 75.5138 1.44701 51.2488 -5.05476ZM60.2043 63.9515C58.3393 66.665 53.4593 68.0224 49.9036 67.8479C47.473 67.7214 44.3648 67.3072 35.3771 60.4062C23.8799 51.5829 19.0728 36.2094 18.6521 35.1828C18.259 34.1636 15.2907 26.8237 16.9829 20.5086C18.675 14.1934 22.7061 11.9777 24.3526 11.0039C25.7046 10.2047 27.5921 10.1798 29.2754 10.6308C29.82 10.7767 30.3023 10.9354 30.7364 11.0753C32.0144 11.4767 32.6429 11.7277 32.9487 13.997C33.325 16.8395 34.2183 23.8474 34.3525 24.5791C34.4921 25.3122 34.5698 26.2764 33.9013 27.0111C33.2529 27.7807 32.7851 28.074 31.9356 28.6482C31.086 29.2224 30.3166 29.6294 29.4522 30.2586C28.6709 30.7981 27.7994 31.3664 28.2011 32.8596C28.6102 34.3253 30.0651 39.2373 32.9639 43.6459C36.7044 49.3355 40.3128 51.7999 41.5783 52.7758C42.5221 53.5004 43.8154 53.7349 44.8121 53.1175C46.0813 52.3197 47.7687 50.8851 49.4707 49.484C50.684 48.4766 51.8365 48.6203 52.8848 49.3728C53.9624 50.1038 59.4173 54.8966 60.5376 55.8866C61.6564 56.8821 62.4265 57.4187 62.5941 58.0473C62.7562 58.6744 62.0708 61.2324 60.2043 63.9515Z" fill="#29C93D"/>
</g>
</g>
<defs>
<clipPath id="clip0">
<rect x="0.300049" width="78.7" height="78.6998" rx="5" fill="white"/>
</clipPath>
<clipPath id="clip1">
<rect width="70.0931" height="70.093" transform="matrix(0.965926 0.258819 -0.25882 0.965926 15.4905 -2.54199)" fill="white"/>
</clipPath>
</defs>
</svg>
