<svg width="79" height="79" viewBox="0 0 79 79" fill="none" xmlns="http://www.w3.org/2000/svg">
<g clip-path="url(#clip0)">
<path d="M68.1426 0H10.5573C5.25669 0 0.959717 4.40439 0.959717 9.83747V68.8623C0.959717 74.2954 5.25669 78.6998 10.5573 78.6998H68.1426C73.4432 78.6998 77.7402 74.2954 77.7402 68.8623V9.83747C77.7402 4.40439 73.4432 0 68.1426 0Z" fill="#43EA61"/>
<g clip-path="url(#clip1)">
<path d="M38.3973 9.8374H38.3829C22.5073 9.8374 9.59741 23.0737 9.59741 39.3498C9.59741 45.8057 11.6273 51.7893 15.0788 56.6478L11.4905 67.6117L22.5577 63.9853C27.1106 67.0768 32.5416 68.8623 38.3973 68.8623C54.2729 68.8623 67.1828 55.6222 67.1828 39.3498C67.1828 23.0774 54.2729 9.8374 38.3973 9.8374ZM55.151 51.5126C54.4564 53.5232 51.6995 55.1906 49.5005 55.6776C47.9961 56.0059 46.031 56.2678 39.4158 53.4568C30.9544 49.8636 25.5054 41.0505 25.0807 40.4787C24.674 39.9069 21.6615 35.812 21.6615 31.577C21.6615 27.342 23.7598 25.2798 24.6056 24.3944C25.3002 23.6677 26.4483 23.3356 27.5497 23.3356C27.906 23.3356 28.2263 23.3541 28.5142 23.3688C29.36 23.4057 29.7847 23.4574 30.3425 24.826C31.0372 26.5414 32.7287 30.7765 32.9303 31.2118C33.1354 31.6471 33.3406 32.2373 33.0527 32.8091C32.7827 33.3994 32.5452 33.6613 32.1205 34.163C31.6958 34.6647 31.2927 35.0484 30.868 35.587C30.4793 36.0555 30.0402 36.5572 30.5297 37.4241C31.0192 38.2726 32.7107 41.1021 35.2013 43.3746C38.4153 46.3074 41.021 47.2444 41.9532 47.6428C42.6478 47.9379 43.4756 47.8679 43.9831 47.3145C44.6273 46.6025 45.4227 45.422 46.2325 44.26C46.8084 43.4262 47.5354 43.3229 48.2984 43.6181C49.0758 43.8947 53.1895 45.9791 54.0353 46.4107C54.8811 46.846 55.439 47.0526 55.6441 47.4178C55.8457 47.783 55.8457 49.4984 55.151 51.5126Z" fill="white"/>
</g>
</g>
<defs>
<clipPath id="clip0">
<rect width="78.7" height="78.6998" fill="white"/>
</clipPath>
<clipPath id="clip1">
<rect x="9.59741" y="9.8374" width="57.5854" height="59.0249" fill="white"/>
</clipPath>
</defs>
</svg>
