<svg width="79" height="79" viewBox="0 0 79 79" fill="none" xmlns="http://www.w3.org/2000/svg">
<g clip-path="url(#clip0)">
<path d="M68.4427 0H10.8573C5.55674 0 1.25977 4.40439 1.25977 9.83747V68.8623C1.25977 74.2954 5.55674 78.6998 10.8573 78.6998H68.4427C73.7433 78.6998 78.0402 74.2954 78.0402 68.8623V9.83747C78.0402 4.40439 73.7433 0 68.4427 0Z" fill="#FE0000"/>
<path d="M65.9954 22.9705C64.4333 20.1225 62.7382 19.5987 59.2867 19.3995C55.8389 19.1597 47.1686 19.0601 39.6572 19.0601C32.1316 19.0601 23.4579 19.1597 20.0135 19.3958C16.5692 19.5987 14.8704 20.1188 13.294 22.9705C11.6852 25.8147 10.8574 30.7137 10.8574 39.3388C10.8574 39.3461 10.8574 39.3499 10.8574 39.3499C10.8574 39.3573 10.8574 39.3609 10.8574 39.3609V39.3683C10.8574 47.9565 11.6852 52.8923 13.294 55.7072C14.8704 58.5552 16.5656 59.0716 20.0098 59.3113C23.4579 59.5179 32.1316 59.6396 39.6572 59.6396C47.1686 59.6396 55.8387 59.5179 59.2904 59.315C62.7418 59.0752 64.437 58.5587 65.9991 55.7108C67.6222 52.8961 68.4428 47.96 68.4428 39.3719C68.4428 39.3719 68.4428 39.3609 68.4428 39.3536C68.4428 39.3536 68.4428 39.3461 68.4428 39.3426C68.4428 30.7137 67.6222 25.8147 65.9954 22.9705ZM32.4519 50.417V28.2827L50.4474 39.3499L32.4519 50.417Z" fill="white"/>
</g>
<defs>
<clipPath id="clip0">
<rect x="0.300049" width="78.7" height="78.6998" fill="white"/>
</clipPath>
</defs>
</svg>
