<?xml version="1.0" encoding="utf-8"?><svg viewBox="0 0 48 32" xmlns="http://www.w3.org/2000/svg" xmlns:xlink="http://www.w3.org/1999/xlink"><style>:root>svg{display:none}:root>svg:target{display:block}</style><svg fill="none" viewBox="0 0 48 32" id="logo" xmlns="http://www.w3.org/2000/svg"><circle cx="16" cy="16" r="16" fill="#316099"/><circle cx="32" cy="16" r="15" fill="#fff" stroke="#316099" stroke-width="2"/><path d="M39.3 22L34.38 8h-3.42l-4.9 14h2.98l.84-2.52h5.58L36.3 22h3zm-6.62-10.82l1.92 5.72h-3.84l1.92-5.72z" fill="#316099"/></svg><svg fill="none" viewBox="0 0 48 32" id="logo-footer" xmlns="http://www.w3.org/2000/svg"><circle cx="16" cy="16" r="16" fill="#98C3E8"/><circle cx="32" cy="16" r="15" fill="#fff" stroke="#316099" stroke-width="2"/><path d="M38.3 23L33.38 9h-3.42l-4.9 14h2.98l.84-2.52h5.58L35.3 23h3zm-6.62-10.82l1.92 5.72h-3.84l1.92-5.72z" fill="#316099"/></svg><svg fill="none" viewBox="0 0 20 16" id="mail" xmlns="http://www.w3.org/2000/svg"><path d="M18 0H2C.9 0 .01.9.01 2L0 14c0 1.1.9 2 2 2h16c1.1 0 2-.9 2-2V2c0-1.1-.9-2-2-2zm0 4l-8 5-8-5V2l8 5 8-5v2z" fill="#1F3F68"/></svg><svg fill="none" viewBox="0 0 18 18" id="phone" xmlns="http://www.w3.org/2000/svg"><path d="M3.62 7.79c1.44 2.83 3.76 5.14 6.59 6.59l2.2-2.2c.27-.27.67-.36 1.02-.24 1.12.37 2.33.57 3.57.57.55 0 1 .45 1 1V17c0 .55-.45 1-1 1C7.61 18 0 10.39 0 1c0-.55.45-1 1-1h3.5c.55 0 1 .45 1 1 0 1.25.2 2.45.57 3.57.11.35.03.74-.25 1.02l-2.2 2.2z" fill="#1F3F68"/></svg><svg fill="none" viewBox="0 0 16 16" id="right" xmlns="http://www.w3.org/2000/svg"><path d="M8 0L6.59 1.41 12.17 7H0v2h12.17l-5.58 5.59L8 16l8-8-8-8z" fill="#5A98D0"/></svg><svg fill="none" viewBox="0 0 20 20" id="site" xmlns="http://www.w3.org/2000/svg"><path d="M9.99 0C4.47 0 0 4.48 0 10s4.47 10 9.99 10C15.52 20 20 15.52 20 10S15.52 0 9.99 0zm6.93 6h-2.95a15.65 15.65 0 00-1.38-3.56A8.03 8.03 0 0116.92 6zM10 2.04c.83 1.2 1.48 2.53 1.91 3.96H8.09C8.52 4.57 9.17 3.24 10 2.04zM2.26 12C2.1 11.36 2 10.69 2 10s.1-1.36.26-2h3.38c-.08.66-.14 1.32-.14 2 0 .68.06 1.34.14 2H2.26zm.82 2h2.95c.32 1.25.78 2.45 1.38 3.56A7.987 7.987 0 013.08 14zm2.95-8H3.08a7.987 7.987 0 014.33-3.56A15.65 15.65 0 006.03 6zM10 17.96c-.83-1.2-1.48-2.53-1.91-3.96h3.82c-.43 1.43-1.08 2.76-1.91 3.96zM12.34 12H7.66c-.09-.66-.16-1.32-.16-2 0-.68.07-1.35.16-2h4.68c.09.65.16 1.32.16 2 0 .68-.07 1.34-.16 2zm.25 5.56c.6-1.11 1.06-2.31 1.38-3.56h2.95a8.03 8.03 0 01-4.33 3.56zM14.36 12c.08-.66.14-1.32.14-2 0-.68-.06-1.34-.14-2h3.38c.16.64.26 1.31.26 2s-.1 1.36-.26 2h-3.38z" fill="#1F3F68"/></svg></svg>